<?xml version="1.0" encoding="UTF-8"?>
<svg width="376px" height="128px" viewBox="0 0 376 128" version="1.1" xmlns="http://www.w3.org/2000/svg" xmlns:xlink="http://www.w3.org/1999/xlink">
    <!-- Generator: Sketch 54.1 (76490) - https://sketchapp.com -->
    <title>devfest_color_text</title>
    <desc>Created with Sketch.</desc>
    <defs>
        <radialGradient cx="98.8014632%" cy="97.7460266%" fx="98.8014632%" fy="97.7460266%" r="325.470588%" gradientTransform="translate(0.988015,0.977460),scale(1.000000,0.719577),translate(-0.988015,-0.977460)" id="radialGradient-1">
            <stop stop-color="#BF360C" stop-opacity="0.2" offset="0%"></stop>
            <stop stop-color="#BF360C" stop-opacity="0.02" offset="100%"></stop>
        </radialGradient>
        <radialGradient cx="162.417641%" cy="157.771417%" fx="162.417641%" fy="157.771417%" r="262.488241%" gradientTransform="translate(1.624176,1.577714),scale(1.000000,0.693878),translate(-1.624176,-1.577714)" id="radialGradient-2">
            <stop stop-color="#263238" stop-opacity="0.2" offset="0%"></stop>
            <stop stop-color="#263238" stop-opacity="0.02" offset="100%"></stop>
        </radialGradient>
        <radialGradient cx="-1.30060613%" cy="0.781231235%" fx="-1.30060613%" fy="0.781231235%" r="168.015812%" gradientTransform="translate(-0.013006,0.007812),scale(1.000000,0.624709),translate(0.013006,-0.007812)" id="radialGradient-3">
            <stop stop-color="#FFFFFF" stop-opacity="0.1" offset="0%"></stop>
            <stop stop-color="#FFFFFF" stop-opacity="0" offset="100%"></stop>
        </radialGradient>
    </defs>
    <g id="Page-1" stroke="none" stroke-width="1" fill="none" fill-rule="evenodd">
        <g id="devfest_color_text" transform="translate(-1.000000, 0.000000)">
            <g id="XMLID_2_" transform="translate(0.700000, 0.000000)">
                <g id="XMLID_3_">
                    <g id="XMLID_4_">
                        <path d="M78.7,58 L45.1,0 L0.3,0 L37.3,64 L0.3,128 L45.1,128 L78.6,70 C80.8,66.3 80.8,61.7 78.7,58 L78.7,58 Z" id="XMLID_33_"></path>
                        <polygon id="XMLID_32_" fill="#FFC107" fill-rule="nonzero" points="59.4 102.3 48.8 83.9 23.3 128 45.1 128 59.7 102.8"></polygon>
                        <path d="M78.7,58 L45.1,0 L0.3,0 L37.3,64 L0.3,128 L45.1,128 L78.6,70 C80.8,66.3 80.8,61.7 78.7,58 L78.7,58 Z" id="XMLID_31_"></path>
                        <polygon id="XMLID_30_" fill="#0F9D58" fill-rule="nonzero" points="37.3 64 48.8 83.9 23.3 128 0.3 128"></polygon>
                        <path d="M78.7,58 L45.1,0 L0.3,0 L37.3,64 L0.3,128 L45.1,128 L78.6,70 C80.8,66.3 80.8,61.7 78.7,58 L78.7,58 Z" id="XMLID_29_"></path>
                        <polygon id="XMLID_28_" fill="#BF360C" fill-rule="nonzero" opacity="0.2" points="45.1 127 23.8 127 23.3 128 45.1 128 59.7 102.8 59.4 102.3"></polygon>
                        <path d="M78.7,58 L45.1,0 L0.3,0 L37.3,64 L0.3,128 L45.1,128 L78.6,70 C80.8,66.3 80.8,61.7 78.7,58 L78.7,58 Z" id="XMLID_27_"></path>
                        <polygon id="XMLID_26_" fill="#263238" fill-rule="nonzero" opacity="0.2" points="0.8 127 0.3 128 23.3 128 23.8 127"></polygon>
                        <path d="M78.7,58 L45.1,0 L0.3,0 L37.3,64 L0.3,128 L45.1,128 L78.6,70 C80.8,66.3 80.8,61.7 78.7,58 L78.7,58 Z" id="XMLID_25_"></path>
                        <polygon id="XMLID_24_" fill="#FFFFFF" fill-rule="nonzero" opacity="0.2" points="0.3 128 0.8 128 37.6 64.5 37.3 64"></polygon>
                        <path d="M78.7,58 L45.1,0 L0.3,0 L37.3,64 L0.3,128 L45.1,128 L78.6,70 C80.8,66.3 80.8,61.7 78.7,58 L78.7,58 Z" id="XMLID_23_"></path>
                        <polygon id="XMLID_22_" fill="url(#radialGradient-1)" fill-rule="nonzero" points="59.7 102.8 48.8 83.9 46.1 88.5"></polygon>
                        <path d="M78.7,58 L45.1,0 L0.3,0 L37.3,64 L0.3,128 L45.1,128 L78.6,70 C80.8,66.3 80.8,61.7 78.7,58 L78.7,58 Z" id="XMLID_21_"></path>
                        <polygon id="XMLID_20_" fill="url(#radialGradient-2)" fill-rule="nonzero" points="46.1 88.5 48.8 83.9 37.3 64 31.8 73.5"></polygon>
                        <path d="M78.7,58 L45.1,0 L0.3,0 L37.3,64 L0.3,128 L45.1,128 L78.6,70 C80.8,66.3 80.8,61.7 78.7,58 L78.7,58 Z" id="XMLID_19_"></path>
                        <g id="XMLID_16_" fill="#4285F4" fill-rule="nonzero">
                            <g id="XMLID_17_">
                                <polygon id="XMLID_18_" points="23.3 0 0.3 0 59.7 102.8 71.2 82.9"></polygon>
                            </g>
                        </g>
                        <path d="M78.7,58 L45.1,0 L0.3,0 L37.3,64 L0.3,128 L45.1,128 L78.6,70 C80.8,66.3 80.8,61.7 78.7,58 L78.7,58 Z" id="XMLID_15_"></path>
                        <path d="M78.7,70 C80.8,66.3 80.8,61.7 78.7,58 L45.1,0 L23.3,0 L71.2,82.9 L78.7,70 Z" id="XMLID_14_" fill="#DB4437" fill-rule="nonzero"></path>
                        <path d="M78.7,58 L45.1,0 L0.3,0 L37.3,64 L0.3,128 L45.1,128 L78.6,70 C80.8,66.3 80.8,61.7 78.7,58 L78.7,58 Z" id="XMLID_13_"></path>
                        <polygon id="XMLID_12_" fill="#1A237E" fill-rule="nonzero" opacity="0.2" points="71.2 82.9 70.9 82.4 59.7 101.8 0.8 0 0.3 0 59.7 102.8"></polygon>
                        <path d="M78.7,58 L45.1,0 L0.3,0 L37.3,64 L0.3,128 L45.1,128 L78.6,70 C80.8,66.3 80.8,61.7 78.7,58 L78.7,58 Z" id="XMLID_11_"></path>
                        <path d="M45.1,1 L78.6,59 C79.6,60.7 80.1,62.6 80.2,64.5 C80.3,62.3 79.8,60 78.6,58 L45.1,0 L0.3,0 L0.9,1 L45.1,1 Z" id="XMLID_10_" fill="#FFFFFF" fill-rule="nonzero" opacity="0.2"></path>
                        <path d="M78.7,58 L45.1,0 L0.3,0 L37.3,64 L0.3,128 L45.1,128 L78.6,70 C80.8,66.3 80.8,61.7 78.7,58 L78.7,58 Z" id="XMLID_9_"></path>
                        <path d="M71.2,82.9 L78.7,70 C79.9,68 80.4,65.7 80.3,63.5 C80.2,65.4 79.7,67.3 78.7,69 L71,82.4 L71.2,82.9 Z" id="XMLID_8_" fill="#3E2723" fill-rule="nonzero" opacity="0.2"></path>
                        <path d="M78.7,58 L45.1,0 L0.3,0 L37.3,64 L0.3,128 L45.1,128 L78.6,70 C80.8,66.3 80.8,61.7 78.7,58 L78.7,58 Z" id="XMLID_6_"></path>
                        <path d="M78.7,58 L45.1,0 L0.3,0 L37.3,64 L0.3,128 L45.1,128 L78.6,70 C80.8,66.3 80.8,61.7 78.7,58 L78.7,58 Z" id="XMLID_5_" fill="url(#radialGradient-3)" fill-rule="nonzero"></path>
                    </g>
                </g>
            </g>
            <g id="text870" transform="translate(107.000000, 10.000000)" fill="#636363" fill-rule="nonzero">
                <path d="M0.14737,0.861334 L12.81937,0.861334 C17.1215967,0.861334 20.8762633,1.76088967 24.08337,3.560001 C27.2904833,5.320001 29.7544833,7.784001 31.47537,10.952001 C33.1962633,14.120001 34.05671,17.7573347 34.05671,21.864002 C34.05671,25.9706687 33.1962633,29.608002 31.47537,32.776002 C29.7544833,35.944002 27.2904833,38.4275577 24.08337,40.226669 C20.8762633,41.986669 17.1215967,42.866669 12.81937,42.866669 L0.14737,42.866669 L0.14737,0.861334 Z M12.81937,38.114669 C17.7864833,38.114669 21.71715,36.6871133 24.61137,33.832002 C27.5447033,30.9768907 29.01137,26.9875573 29.01137,21.864002 C29.01137,16.740446 27.5447033,12.7511123 24.61137,9.896001 C21.71715,7.04089033 17.7864833,5.613335 12.81937,5.613335 L5.07537,5.613335 L5.07537,38.114669 L12.81937,38.114669 Z" id="path877"></path>
                <path d="M52.80071,43.805335 C49.9455967,43.805335 47.38382,43.1208907 45.11538,41.752002 C42.8469333,40.3831133 41.0673767,38.50578 39.77671,36.120002 C38.5251567,33.6951127 37.89938,30.9768903 37.89938,27.965335 C37.89938,25.071113 38.4860467,22.4115573 39.65938,19.986668 C40.87182,17.5617793 42.5731533,15.6257793 44.76338,14.178668 C46.9536,12.7315567 49.49582,12.008001 52.39004,12.008001 C55.3233733,12.008001 57.8655967,12.67289 60.01671,14.002668 C62.1678233,15.2933347 63.81049,17.092446 64.94471,19.400002 C66.1180433,21.7075573 66.70471,24.3475573 66.70471,27.320002 C66.70471,27.9066687 66.6460433,28.415113 66.52871,28.845335 L42.88604,28.845335 C43.0033733,31.1137797 43.55093,33.0302243 44.52871,34.594669 C45.50649,36.159113 46.73849,37.3324463 48.22471,38.114669 C49.7500433,38.896891 51.3340433,39.288002 52.97671,39.288002 C56.8095967,39.288002 59.7624867,37.488891 61.83538,33.890669 L66.05938,35.944002 C64.7687133,38.3688907 63.0087133,40.285335 60.77938,41.693335 C58.5891533,43.101335 55.9295967,43.805335 52.80071,43.805335 L52.80071,43.805335 Z M61.42471,24.738668 C61.34649,23.4871127 60.99449,22.2355573 60.36871,20.984002 C59.74293,19.732446 58.7455967,18.6764457 57.37671,17.816001 C56.04693,16.955557 54.3651533,16.525335 52.33138,16.525335 C49.9847133,16.525335 47.9900467,17.2880017 46.34738,18.813335 C44.74382,20.299557 43.68782,22.274668 43.17938,24.738668 L61.42471,24.738668 Z" id="path879"></path>
                <polygon id="path881" points="68.62513 12.946668 73.9638 12.946668 83.23313 37.000002 83.35046 37.000002 92.73713 12.946668 97.95846 12.946668 85.7558 42.866669 80.71046 42.866669"></polygon>
                <polygon id="path883" points="103.04322 0.861334 127.33122 0.861334 127.33122 5.613335 107.97122 5.613335 107.97122 19.986668 125.45388 19.986668 125.45388 24.680002 107.97122 24.680002 107.97122 42.866669 103.04322 42.866669"></polygon>
                <path d="M144.81112,43.805335 C141.956013,43.805335 139.394237,43.1208907 137.12579,41.752002 C134.857343,40.3831133 133.077787,38.50578 131.78712,36.120002 C130.535567,33.6951127 129.90979,30.9768903 129.90979,27.965335 C129.90979,25.071113 130.496457,22.4115573 131.66979,19.986668 C132.882237,17.5617793 134.58357,15.6257793 136.77379,14.178668 C138.96401,12.7315567 141.506233,12.008001 144.40046,12.008001 C147.333793,12.008001 149.876013,12.67289 152.02712,14.002668 C154.178233,15.2933347 155.8209,17.092446 156.95512,19.400002 C158.128453,21.7075573 158.71512,24.3475573 158.71512,27.320002 C158.71512,27.9066687 158.656453,28.415113 158.53912,28.845335 L134.89646,28.845335 C135.013793,31.1137797 135.561347,33.0302243 136.53912,34.594669 C137.5169,36.159113 138.7489,37.3324463 140.23512,38.114669 C141.760453,38.896891 143.344453,39.288002 144.98712,39.288002 C148.820013,39.288002 151.772903,37.488891 153.84579,33.890669 L158.06979,35.944002 C156.779123,38.3688907 155.019123,40.285335 152.78979,41.693335 C150.59957,43.101335 147.940013,43.805335 144.81112,43.805335 L144.81112,43.805335 Z M153.43512,24.738668 C153.3569,23.4871127 153.0049,22.2355573 152.37912,20.984002 C151.753347,19.732446 150.756013,18.6764457 149.38712,17.816001 C148.057347,16.955557 146.37557,16.525335 144.34179,16.525335 C141.995123,16.525335 140.000457,17.2880017 138.35779,18.813335 C136.754237,20.299557 135.698237,22.274668 135.18979,24.738668 L153.43512,24.738668 Z" id="path885"></path>
                <path d="M175.28021,43.805335 C172.073097,43.805335 169.393983,43.062224 167.24287,41.576002 C165.091763,40.0506687 163.56643,38.1146687 162.66687,35.768002 L167.12554,33.773335 C167.868653,35.5724463 168.963763,36.960891 170.41087,37.938669 C171.897097,38.9164463 173.52021,39.405335 175.28021,39.405335 C177.157543,39.405335 178.761097,39.0337797 180.09087,38.290669 C181.42065,37.5084463 182.08554,36.413335 182.08554,35.005335 C182.08554,33.7537797 181.55754,32.7564463 180.50154,32.013335 C179.44554,31.231113 177.783317,30.566224 175.51487,30.018668 L171.87754,29.080002 C169.49176,28.4933353 167.536203,27.496002 166.01087,26.088002 C164.485537,24.680002 163.72287,22.8613353 163.72287,20.632002 C163.72287,18.9111127 164.231317,17.4053347 165.24821,16.114668 C166.30421,14.78489 167.692653,13.768001 169.41354,13.064001 C171.134427,12.360001 172.992203,12.008001 174.98687,12.008001 C177.607317,12.008001 179.93443,12.5751123 181.96821,13.709335 C184.041097,14.843557 185.507763,16.427557 186.36821,18.461335 L182.02687,20.456002 C180.697097,17.796446 178.330877,16.466668 174.92821,16.466668 C173.285543,16.466668 171.83843,16.857779 170.58687,17.640001 C169.37443,18.3831123 168.76821,19.3413347 168.76821,20.514668 C168.76821,21.6097793 169.19843,22.509335 170.05887,23.213335 C170.919317,23.8782237 172.209983,24.4257793 173.93087,24.856002 L178.27221,25.970668 C181.205543,26.7137793 183.41532,27.828446 184.90154,29.314668 C186.38776,30.7617793 187.13087,32.541335 187.13087,34.653335 C187.13087,36.4915577 186.60287,38.114669 185.54687,39.522669 C184.49087,40.8915577 183.063317,41.9475577 181.26421,42.690669 C179.465097,43.4337797 177.47043,43.805335 175.28021,43.805335 L175.28021,43.805335 Z" id="path887"></path>
                <path d="M203.72163,43.336002 C202.509183,43.336002 201.37496,43.1404463 200.31896,42.749335 C199.302073,42.3582243 198.44163,41.8302243 197.73763,41.165335 C196.95541,40.4222243 196.368743,39.56178 195.97763,38.584002 C195.586517,37.606224 195.39096,36.413335 195.39096,35.005335 L195.39096,17.464001 L190.16963,17.464001 L190.16963,12.946668 L195.39096,12.946668 L195.39096,4.498668 L200.37763,4.498668 L200.37763,12.946668 L207.6523,12.946668 L207.6523,17.464001 L200.37763,17.464001 L200.37763,33.773335 C200.37763,35.4160017 200.69052,36.6284463 201.3163,37.410669 C202.059407,38.271113 203.13496,38.701335 204.54296,38.701335 C205.677187,38.701335 206.7723,38.3688907 207.8283,37.704002 L207.8283,42.573335 C207.241633,42.847113 206.63541,43.0426687 206.00963,43.160002 C205.422963,43.2773353 204.660297,43.336002 203.72163,43.336002 L203.72163,43.336002 Z" id="path889"></path>
                <path d="M0.14737,64.194669 L14.28604,64.194669 C16.6327067,64.194669 18.8033733,64.722669 20.79804,65.778669 C22.7927067,66.834669 24.3767067,68.3208913 25.55004,70.237336 C26.7624867,72.1146693 27.36871,74.246225 27.36871,76.632003 C27.36871,79.017781 26.7624867,81.168892 25.55004,83.085336 C24.3767067,84.96267 22.7927067,86.429337 20.79804,87.485337 C18.8033733,88.541337 16.6327067,89.069337 14.28604,89.069337 L5.07537,89.069337 L5.07537,106.2 L0.14737,106.2 L0.14737,64.194669 Z M14.40337,84.317336 C15.9678167,84.317336 17.3367067,83.9457807 18.51004,83.20267 C19.7224867,82.4595587 20.6611533,81.5013363 21.32604,80.328003 C21.9909267,79.1546697 22.32337,77.9226697 22.32337,76.632003 C22.32337,75.3413363 21.9909267,74.1093363 21.32604,72.936003 C20.6611533,71.7626697 19.7224867,70.8044473 18.51004,70.061336 C17.3367067,69.3182247 15.9678167,68.946669 14.40337,68.946669 L5.07537,68.946669 L5.07537,84.317336 L14.40337,84.317336 Z" id="path891"></path>
                <path d="M41.36896,107.13867 C39.1787333,107.13867 37.2231767,106.708447 35.50229,105.848 C33.7814033,104.98756 32.4516267,103.814227 31.51296,102.328 C30.5742933,100.802667 30.10496,99.08178 30.10496,97.16534 C30.10496,93.99734 31.2978467,91.533339 33.68362,89.773337 C36.0694,87.9742257 39.0809567,87.07467 42.71829,87.07467 C44.5174033,87.07467 46.1796267,87.2702257 47.70496,87.661337 C49.2694,88.0524477 50.4622867,88.5022253 51.28362,89.01067 L51.28362,87.192003 C51.28362,84.9626697 50.5014,83.183114 48.93696,81.853336 C47.3725133,80.4844473 45.3974,79.800003 43.01162,79.800003 C41.3298467,79.800003 39.78496,80.1715587 38.37696,80.91467 C36.96896,81.61867 35.8542933,82.6160033 35.03296,83.90667 L31.27829,81.09067 C32.4516233,79.2915587 34.05518,77.8835587 36.08896,76.86667 C38.1618467,75.8497807 40.4498467,75.341336 42.95296,75.341336 C47.0205133,75.341336 50.2080667,76.4168917 52.51562,78.568003 C54.8622867,80.680003 56.03562,83.5742253 56.03562,87.25067 L56.03562,106.2 L51.28362,106.2 L51.28362,101.91734 L51.04896,101.91734 C50.1885133,103.364447 48.8978467,104.596447 47.17696,105.61334 C45.4560667,106.630227 43.5200667,107.13867 41.36896,107.13867 L41.36896,107.13867 Z M41.83829,102.73867 C43.52007,102.73867 45.0845133,102.308447 46.53162,101.448 C47.9787333,100.58756 49.1325133,99.4337833 49.99296,97.98667 C50.8534,96.5395567 51.28362,94.9555567 51.28362,93.23467 C50.3449533,92.60889 49.1911767,92.1004467 47.82229,91.70934 C46.4534033,91.3182267 45.0062933,91.12267 43.48096,91.12267 C40.74318,91.12267 38.67029,91.68978 37.26229,92.824 C35.8934033,93.9582267 35.20896,95.4248933 35.20896,97.224 C35.20896,98.8666667 35.8347367,100.196447 37.08629,101.21334 C38.3378433,102.230227 39.9218433,102.73867 41.83829,102.73867 L41.83829,102.73867 Z" id="path893"></path>
                <path d="M62.97296,76.280003 L67.72496,76.280003 L67.72496,81.09067 L67.95963,81.09067 C68.5462967,79.4480033 69.6805167,78.09867 71.36229,77.04267 C73.04407,75.9475587 74.80407,75.400003 76.64229,75.400003 C78.0111833,75.400003 79.1845167,75.5955587 80.16229,75.98667 L80.16229,81.384003 C78.9107367,80.758225 77.5027367,80.445336 75.93829,80.445336 C74.4911833,80.445336 73.1614067,80.8560027 71.94896,81.677336 C70.7365133,82.4986693 69.7587367,83.613336 69.01563,85.021336 C68.31163,86.3902253 67.95963,87.8764477 67.95963,89.480003 L67.95963,106.2 L62.97296,106.2 L62.97296,76.280003 Z" id="path895"></path>
                <path d="M87.9063,70.765336 C86.92852,70.765336 86.08763,70.413336 85.38363,69.709336 C84.67963,69.005336 84.32763,68.164447 84.32763,67.186669 C84.32763,66.2088917 84.67963,65.3875583 85.38363,64.722669 C86.08763,64.018669 86.92852,63.666669 87.9063,63.666669 C88.8840733,63.666669 89.72496,64.018669 90.42896,64.722669 C91.13296,65.3875583 91.48496,66.2088917 91.48496,67.186669 C91.48496,68.164447 91.13296,69.005336 90.42896,69.709336 C89.7640733,70.413336 88.9231867,70.765336 87.9063,70.765336 Z M85.4423,76.280003 L90.3703,76.280003 L90.3703,106.2 L85.4423,106.2 L85.4423,76.280003 Z" id="path897"></path>
                <path d="M108.70729,107.13867 C105.500183,107.13867 102.821073,106.39556 100.66996,104.90934 C98.5188467,103.384007 96.9935133,101.448007 96.09396,99.10134 L100.55263,97.10667 C101.295737,98.9057833 102.390847,100.294227 103.83796,101.272 C105.32418,102.24978 106.94729,102.73867 108.70729,102.73867 C110.584623,102.73867 112.18818,102.367113 113.51796,101.624 C114.84774,100.84178 115.51263,99.74667 115.51263,98.33867 C115.51263,97.0871167 114.98463,96.0897833 113.92863,95.34667 C112.87263,94.56445 111.210407,93.89956 108.94196,93.352 L105.30463,92.41334 C102.91885,91.8266733 100.963293,90.829339 99.43796,89.421337 C97.9126267,88.013337 97.14996,86.19467 97.14996,83.965336 C97.14996,82.2444473 97.6584033,80.7386697 98.67529,79.448003 C99.73129,78.118225 101.119737,77.101336 102.84063,76.397336 C104.561517,75.693336 106.419293,75.341336 108.41396,75.341336 C111.034407,75.341336 113.361517,75.9084473 115.39529,77.04267 C117.468183,78.176892 118.93485,79.760892 119.79529,81.79467 L115.45396,83.789336 C114.12418,81.1297807 111.757957,79.800003 108.35529,79.800003 C106.712623,79.800003 105.265513,80.191114 104.01396,80.973336 C102.801513,81.7164473 102.19529,82.6746697 102.19529,83.848003 C102.19529,84.9431143 102.625513,85.84267 103.48596,86.54667 C104.346407,87.2115587 105.637073,87.7591143 107.35796,88.189337 L111.69929,89.304003 C114.632623,90.0471143 116.842403,91.16178 118.32863,92.648 C119.81485,94.0951133 120.55796,95.87467 120.55796,97.98667 C120.55796,99.82489 120.02996,101.448 118.97396,102.856 C117.91796,104.224893 116.490403,105.280893 114.69129,106.024 C112.892183,106.767113 110.897517,107.13867 108.70729,107.13867 L108.70729,107.13867 Z" id="path899"></path>
                <path d="M143.57321,101.21334 C144.785657,100.000893 147.19099,97.5760033 150.78921,93.93867 C154.387437,90.2622253 156.89055,87.6613363 158.29855,86.136003 C160.293217,83.9848917 161.64255,82.303114 162.34655,81.09067 C163.05055,79.8782253 163.40255,78.4115587 163.40255,76.69067 C163.40255,75.5173367 163.08966,74.4222253 162.46388,73.405336 C161.877213,72.349336 160.997213,71.5084473 159.82388,70.88267 C158.68966,70.2177807 157.32077,69.885336 155.71721,69.885336 C153.60521,69.885336 151.903877,70.511114 150.61321,71.76267 C149.361657,72.975114 148.540323,74.3048917 148.14921,75.752003 L143.57321,73.933336 C143.964323,72.6817807 144.668323,71.391114 145.68521,70.061336 C146.702103,68.6924473 148.070993,67.5386697 149.79188,66.600003 C151.512767,65.622225 153.546543,65.133336 155.89321,65.133336 C158.35721,65.133336 160.527877,65.661336 162.40521,66.717336 C164.321657,67.773336 165.80788,69.181336 166.86388,70.941336 C167.91988,72.701336 168.44788,74.598225 168.44788,76.632003 C168.44788,80.7386697 166.29677,84.9822253 161.99455,89.36267 L149.96788,101.448 L168.91721,101.448 L168.91721,106.2 L143.57321,106.2 L143.57321,101.21334 Z" id="path901"></path>
                <path d="M208.57321,101.21334 C209.785657,100.000893 212.19099,97.5760033 215.78921,93.93867 C219.387437,90.2622253 221.89055,87.6613363 223.29855,86.136003 C225.293217,83.9848917 226.64255,82.303114 227.34655,81.09067 C228.05055,79.8782253 228.40255,78.4115587 228.40255,76.69067 C228.40255,75.5173367 228.08966,74.4222253 227.46388,73.405336 C226.877213,72.349336 225.997213,71.5084473 224.82388,70.88267 C223.68966,70.2177807 222.32077,69.885336 220.71721,69.885336 C218.60521,69.885336 216.903877,70.511114 215.61321,71.76267 C214.361657,72.975114 213.540323,74.3048917 213.14921,75.752003 L208.57321,73.933336 C208.964323,72.6817807 209.668323,71.391114 210.68521,70.061336 C211.702103,68.6924473 213.070993,67.5386697 214.79188,66.600003 C216.512767,65.622225 218.546543,65.133336 220.89321,65.133336 C223.35721,65.133336 225.527877,65.661336 227.40521,66.717336 C229.321657,67.773336 230.80788,69.181336 231.86388,70.941336 C232.91988,72.701336 233.44788,74.598225 233.44788,76.632003 C233.44788,80.7386697 231.29677,84.9822253 226.99455,89.36267 L214.96788,101.448 L233.91721,101.448 L233.91721,106.2 L208.57321,106.2 L208.57321,101.21334 Z" id="path901"></path>
                <path d="M190.6468,107.13867 C187.4788,107.13867 184.6628,106.21956 182.1988,104.38134 C179.773913,102.504007 177.89658,99.98134 176.5668,96.81334 C175.276133,93.6062267 174.6308,90.0471143 174.6308,86.136003 C174.6308,82.2248917 175.276133,78.685336 176.5668,75.517336 C177.89658,72.3102253 179.773913,69.7875587 182.1988,67.949336 C184.623687,66.0720027 187.439687,65.133336 190.6468,65.133336 C193.853913,65.133336 196.669913,66.0720027 199.0948,67.949336 C201.519687,69.7875587 203.377463,72.3102253 204.66813,75.517336 C205.99791,78.685336 206.6628,82.2248917 206.6628,86.136003 C206.6628,90.0471143 205.99791,93.6062267 204.66813,96.81334 C203.377463,99.98134 201.50013,102.504007 199.03613,104.38134 C196.611243,106.21956 193.8148,107.13867 190.6468,107.13867 Z M190.6468,102.38667 C192.876133,102.38667 194.812133,101.68267 196.4548,100.27467 C198.097467,98.8275567 199.368577,96.872 200.26813,94.408 C201.16769,91.944 201.61747,89.1866677 201.61747,86.136003 C201.61747,83.0853363 201.16769,80.328003 200.26813,77.864003 C199.368577,75.400003 198.097467,73.464003 196.4548,72.056003 C194.812133,70.6088917 192.876133,69.885336 190.6468,69.885336 C188.417467,69.885336 186.481467,70.6088917 184.8388,72.056003 C183.196133,73.464003 181.925023,75.400003 181.02547,77.864003 C180.12591,80.328003 179.67613,83.0853363 179.67613,86.136003 C179.67613,89.1866677 180.12591,91.944 181.02547,94.408 C181.925023,96.872 183.196133,98.8275567 184.8388,100.27467 C186.481467,101.68267 188.417467,102.38667 190.6468,102.38667 L190.6468,102.38667 Z" id="path903"></path>
                <path d="M253.6468,107.13867 C250.4788,107.13867 247.6628,106.21956 245.1988,104.38134 C242.773913,102.504007 240.89658,99.98134 239.5668,96.81334 C238.276133,93.6062267 237.6308,90.0471143 237.6308,86.136003 C237.6308,82.2248917 238.276133,78.685336 239.5668,75.517336 C240.89658,72.3102253 242.773913,69.7875587 245.1988,67.949336 C247.623687,66.0720027 250.439687,65.133336 253.6468,65.133336 C256.853913,65.133336 259.669913,66.0720027 262.0948,67.949336 C264.519687,69.7875587 266.377463,72.3102253 267.66813,75.517336 C268.99791,78.685336 269.6628,82.2248917 269.6628,86.136003 C269.6628,90.0471143 268.99791,93.6062267 267.66813,96.81334 C266.377463,99.98134 264.50013,102.504007 262.03613,104.38134 C259.611243,106.21956 256.8148,107.13867 253.6468,107.13867 Z M253.6468,102.38667 C255.876133,102.38667 257.812133,101.68267 259.4548,100.27467 C261.097467,98.8275567 262.368577,96.872 263.26813,94.408 C264.16769,91.944 264.61747,89.1866677 264.61747,86.136003 C264.61747,83.0853363 264.16769,80.328003 263.26813,77.864003 C262.368577,75.400003 261.097467,73.464003 259.4548,72.056003 C257.812133,70.6088917 255.876133,69.885336 253.6468,69.885336 C251.417467,69.885336 249.481467,70.6088917 247.8388,72.056003 C246.196133,73.464003 244.925023,75.400003 244.02547,77.864003 C243.12591,80.328003 242.67613,83.0853363 242.67613,86.136003 C242.67613,89.1866677 243.12591,91.944 244.02547,94.408 C244.925023,96.872 246.196133,98.8275567 247.8388,100.27467 C249.481467,101.68267 251.417467,102.38667 253.6468,102.38667 L253.6468,102.38667 Z" id="path903"></path>
            </g>
        </g>
    </g>
</svg>