<svg enable-background="new 0 0 500 170" viewBox="0 0 500 170" xmlns="http://www.w3.org/2000/svg"><path d="m89.6 75.8-14.8-26.8c-2.2-4-5.9-10.6-8.1-14.7l-8.3-15.1c-2.2-4-7.8-7.3-12.4-7.3h-29c-4.6 0-6.6 3.3-4.3 7.3l31.2 56.5 4 7.3-35.2 64c-2.2 4-.3 7.3 4.3 7.3h29c4.6 0 10.2-3.3 12.4-7.3l8.3-15.1c2.2-4 5.9-10.6 8.1-14.7l14.8-26.8c2.2-4 2.2-10.5 0-14.6z" fill="#f6c214"/><path d="m89.6 75.8-14.8-26.8c-2.2-4-5.9-10.6-8.1-14.7l-8.3-15.1c-2.2-4-7.8-7.3-12.4-7.3h-29c-4.6 0-6.6 3.3-4.3 7.3l31.2 56.5 4 7.3-35.2 64c-2.2 4-.3 7.3 4.3 7.3h29c4.6 0 10.2-3.3 12.4-7.3l8.3-15.1c2.2-4 5.9-10.6 8.1-14.7l14.8-26.8c2.2-4 2.2-10.5 0-14.6z" fill="#f6c214"/><path d="m89.6 75.8-14.8-26.8c-2.2-4-5.9-10.6-8.1-14.7l-8.3-15.1c-2.2-4-7.8-7.3-12.4-7.3h-29c-4.6 0-6.6 3.3-4.3 7.3l31.2 56.5 4 7.3-35.2 64c-2.2 4-.3 7.3 4.3 7.3h29c4.6 0 10.2-3.3 12.4-7.3l8.3-15.1c2.2-4 5.9-10.6 8.1-14.7l14.8-26.8c2.2-4 2.2-10.5 0-14.6z" fill="#f6c214"/><path d="m67 131.4c2.2-4.1 5.7-10.3 7.8-14.1l3.8-6.9-48.6-88.2h-14.8c-.3 0-.6 0-.9 0l29.5 53.6 4 7.3-3.7 6.8 1.9 3.5z" fill="#af7a11"/><path d="m89.6 75.8-14.8-26.8c-2.2-4-5.9-10.6-8.1-14.7l-8.3-15.1c-2.2-4-7.8-7.3-12.4-7.3h-4.1c4.6 0 10.2 3.3 12.4 7.3l8.3 15.1c2.2 4 5.9 10.6 8.1 14.7l14.8 26.8c2.2 4 2.2 10.6 0 14.7l-14.8 26.8c-2.2 4-5.9 10.6-8.1 14.7l-8.3 15c-2.2 4-7.8 7.3-12.4 7.3h4.1c4.6 0 10.2-3.3 12.4-7.3l8.3-15.1c2.2-4 5.9-10.6 8.1-14.7l14.8-26.8c2.2-4 2.2-10.5 0-14.6z" fill="#af7a11"/><path d="m85.8 75.8-14.8-26.8c-2.2-4-5.9-10.6-8.1-14.7l-8.3-15.1c-2.2-4-7.8-7.3-12.4-7.3h-4.1c4.6 0 10.2 3.3 12.4 7.3l8.3 15.1c2.2 4 5.9 10.6 8.1 14.7l14.8 26.8c2.2 4 2.2 10.6 0 14.7l-14.8 26.8c-2.2 4-5.9 10.6-8.1 14.7l-8.3 15c-2.2 4-7.8 7.3-12.4 7.3h4.1c4.6 0 10.2-3.3 12.4-7.3l8.3-15.1c2.2-4 5.9-10.6 8.1-14.7l14.8-26.8c2.2-4 2.2-10.5 0-14.6z" fill="#af7a11"/><path d="m65.1 118s-16.8 2.3-28 0c0 0 13.3-7 28 0zm-38.7 19.6c11.2 2.3 28 0 28 0-14.8-6.9-28 0-28 0z" fill="#af7a11"/><path d="m89.6 90.5c2.2-4 2.2-10.6 0-14.7l-14.8-26.8c-2.2-4-5.9-10.6-8.1-14.7l-8.3-15.1c-2.2-4-7.8-7.3-12.4-7.3h-21l53.1 99.3z" fill="#d8533f"/><path d="m32.4 19.3 2.7 5 28.4 51.6 4 7.3 13 23.6 3.6-6.5-9.4-17.1-4-7.3-28.4-51.6-2.7-5c-2.2-4-.3-7.3 4.3-7.3h-14.5c-4.6 0 .7 3.3 3 7.3z" fill="#9d2c40"/><path d="m53.6 26.6c-11.2 2.3-28 0-28 0 14.7-7 28 0 28 0zm-17.3 19.6s16.8 2.3 28 0c0 0-13.2-6.9-28 0zm10.8 19.7s16.8 2.3 28 0c0 0-13.2-6.9-28 0zm10.8 19.7s16.8 2.3 28 0c0 0-13.3-7-28 0z" fill="#9d2c40"/><path d="m50.8 64-8.3 9.4 1.4 2.5 4 7.3-35.2 63.8c-2.2 4-.3 7.3 4.3 7.3h14.6l.3-.1 34.1-61.8z" fill="#2c9f53"/><path d="m42.5 73.3 1.4 2.5 4 7.3-3.7 6.8 1.9 3.5 9.6 17.5 10.3-18.5-15.2-28.4z" fill="#31733f"/><path d="m66 92.4-2.1-4c-.2.8-.5 1.5-.9 2.1l-14.8 26.8c-2.2 4-5.9 10.6-8.1 14.7l-8.3 15c-2.2 4-7.8 7.3-12.4 7.3h12.2l.3-.1z" fill="#31733f"/><path d="m42.7 134.6-2.2 4c-4.7.1-9.8-.1-14.1-1 0 0 6.9-3.6 16.3-3zm-5.6-16.6c4.3.9 9.5 1.1 14.2 1l2.2-4c-9.4-.7-16.4 3-16.4 3z" fill="#31733f"/><path d="m70.8 124.6c.9-1.7 1.8-3.3 2.7-4.9l5.8-10.5 3.1-5.7-50.5-91.5h-14.9c-4.6 0-6.5 3.3-4.3 7.3l2.7 5 28.4 51.6 4 7.3z" fill="#6181c1"/><path d="m72.8 120.9-1.6-2.8-19.2-34.9-4-7.3-28.5-51.6-2.7-5c-2.2-4-.3-7.3 4.3-7.3h-4.1c-4.6 0-6.5 3.3-4.3 7.3l2.7 5 28.4 51.6 4 7.3 21.3 38.6 1.6 2.8c.8-1.3 1.4-2.5 2.1-3.7z" fill="#4d5b96"/><path d="m16.5 19.3 2.7 5 28.4 51.6 4 7.3 21 38c.3-.5.5-1 .8-1.4l1.2-2.3-18.9-34.3-4-7.3-28.4-51.6-2.7-5c-2.2-4-.3-7.3 4.3-7.3h-4.1c-4.6 0-6.6 3.3-4.3 7.3z" fill="#4d5b96"/><path d="m40.5 27.6c-7.9-.1-14.9-1-14.9-1 4.5-2.1 8.8-2.9 12.7-3.1zm8.6 15.6c-3.9.1-8.2.9-12.7 3.1 0 0 7 1 15 1zm10.8 19.6c-3.9.1-8.3.9-12.8 3.1 0 0 7.1 1 15.1 1zm10.9 19.7c-3.9.1-8.3.9-12.9 3.1 0 0 7.1 1 15.2 1z" fill="#4d5b96"/><g fill="#fff"><path d="m51.7 16.2c-.6 0-.6 1 0 1 .7 0 .7-1 0-1z"/><path d="m55.5 18.5c-.7 0-.7 1 0 1 .7.1.7-1 0-1z"/><path d="m56 26c-.5 0-.5.8 0 .8.5-.1.5-.8 0-.8z"/><path d="m59.4 26.5c-.8 0-.8 1.2 0 1.2.7.1.7-1.2 0-1.2z"/><path d="m59.8 30.7c-.7 0-.7 1.1 0 1.1s.7-1.1 0-1.1z"/><path d="m61.3 33.3c-.7 0-.7 1.1 0 1.1s.7-1.1 0-1.1z"/><path d="m63.3 34.5c-.8 0-.8 1.2 0 1.2s.8-1.2 0-1.2z"/><path d="m66 43.2c-.7 0-.7 1 0 1s.7-1 0-1z"/><path d="m63 44.5c-.8 0-.8 1.2 0 1.2s.8-1.2 0-1.2z"/><path d="m68.4 45.5c-.7 0-.7 1.1 0 1.1s.7-1.1 0-1.1z"/><path d="m71.1 50.9c-.6 0-.6.9 0 .9s.6-.9 0-.9z"/><path d="m66.3 39.3c-.6 0-.6.9 0 .9.6-.1.6-.9 0-.9z"/><path d="m61.1 38.6c-.7 0-.7 1 0 1s.7-1 0-1z"/><path d="m74.9 53.6c-.6 0-.6.9 0 .9s.6-.9 0-.9z"/><path d="m75.6 58.4c-.6 0-.6.9 0 .9.5-.1.5-.9 0-.9z"/><path d="m78 59c-.6 0-.6.9 0 .9.5 0 .5-.9 0-.9z"/><path d="m79.4 63.3c-.6 0-.6.9 0 .9s.6-.9 0-.9z"/><path d="m76.8 66c-.5 0-.5.8 0 .8.6 0 .6-.8 0-.8z"/><path d="m74 60.9c-.5 0-.5.8 0 .8s.5-.8 0-.8z"/><path d="m70 55.5c-.6 0-.6 1 0 1 .6-.1.6-1 0-1z"/><path d="m67.6 52.3c-.5 0-.5.8 0 .8.5.1.5-.8 0-.8z"/><path d="m81.1 63.4c-.6 0-.6 1 0 1 .7 0 .7-1 0-1z"/><path d="m80.8 69.1c-.5 0-.5.7 0 .7s.5-.7 0-.7z"/><path d="m80.2 72.1c-.5 0-.5.8 0 .8.5-.1.5-.8 0-.8z"/><path d="m84 72c-.6 0-.6.9 0 .9.5 0 .6-.9 0-.9z"/><path d="m86.1 73.8c-.7 0-.7 1.1 0 1.1s.7-1.1 0-1.1z"/><path d="m87 79.1c-.6 0-.6.9 0 .9.6.1.6-.9 0-.9z"/><path d="m88.6 81.5c-.6 0-.6 1 0 1s.6-1 0-1z"/><path d="m85.9 82.7c-.5 0-.5.8 0 .8s.5-.8 0-.8z"/><path d="m82.6 77.9c-.6 0-.6.9 0 .9s.6-.9 0-.9z"/><path d="m80.8 73.3c-.5 0-.5.8 0 .8s.5-.8 0-.8z"/><path d="m82.9 66.9c-.6 0-.6.9 0 .9s.6-.9 0-.9z"/><path d="m80.5 65.9c-.6 0-.7 1 0 1 .6 0 .6-1 0-1z"/><path d="m74.1 62.1c-.7 0-.7 1.1 0 1.1.7-.1.7-1.1 0-1.1z"/><path d="m70.6 65.7c-.7 0-.7 1.1 0 1.1s.7-1.1 0-1.1z"/><path d="m67.3 62.1c-.4 0-.4.6 0 .6.4.1.4-.6 0-.6z"/><path d="m63.6 57.1c-.4 0-.4.6 0 .6.4-.1.4-.6 0-.6z"/><path d="m66 55.4c-.5 0-.5.7 0 .7s.5-.7 0-.7z"/><path d="m61.9 51.5c-.6 0-.6.9 0 .9s.6-.9 0-.9z"/><path d="m65.6 48.9c-.5 0-.5.8 0 .8.5-.1.5-.8 0-.8z"/><path d="m60.1 45.9c-.4 0-.4.6 0 .6.5 0 .5-.6 0-.6z"/><path d="m55.7 46.4c-.4 0-.4.6 0 .6s.4-.6 0-.6z"/><path d="m56.2 40.5c-.3 0-.3.4 0 .4.2 0 .2-.4 0-.4z"/><path d="m60.3 41.4c-.5 0-.5.7 0 .7s.5-.7 0-.7z"/><path d="m58.2 35.9c-.6 0-.6.9 0 .9s.6-.9 0-.9z"/><path d="m51.9 34.8c-.4 0-.4.7 0 .7.4-.1.4-.7 0-.7z"/><path d="m49.3 34c-.4 0-.4.6 0 .6s.4-.6 0-.6z"/><path d="m51.7 29c-.3 0-.3.5 0 .5s.3-.5 0-.5z"/><path d="m56.5 29.7c-.5 0-.5.7 0 .7.4 0 .4-.7 0-.7z"/><path d="m47.9 29c-.4 0-.4.7 0 .7s.4-.7 0-.7z"/><path d="m51.2 22.8c-.5 0-.5.8 0 .8.6 0 .6-.8 0-.8z"/><path d="m56.3 22.8c-.6 0-.6 1 0 1 .7 0 .7-1 0-1z"/><path d="m58.2 25.2c-.5 0-.5.8 0 .8s.5-.8 0-.8z"/><path d="m52.7 24.6c-.6 0-.6.9 0 .9.6.1.6-.9 0-.9z"/><path d="m54.1 20.3c-.4 0-.4.6 0 .6s.4-.6 0-.6z"/><path d="m52.2 19.1c-.5 0-.5.8 0 .8s.5-.8 0-.8z"/><path d="m53.8 16.2c-.6 0-.6.9 0 .9.5 0 .5-.9 0-.9z"/><path d="m50.6 13.7c-.3 0-.3.5 0 .5s.3-.5 0-.5z"/><path d="m47 13.5c-.6 0-.6 1 0 1 .6-.1.6-1 0-1z"/><path d="m46.8 16.3c-.5 0-.5.8 0 .8s.5-.8 0-.8z"/><path d="m49 15.9c-.6 0-.6.9 0 .9s.6-.9 0-.9z"/><path d="m49.8 19c-.6 0-.6 1 0 1 .7 0 .7-1 0-1z"/><path d="m43.6 15.6c-.4 0-.4.6 0 .6s.4-.6 0-.6z"/><path d="m41.7 18.4c-.6 0-.6.9 0 .9s.6-.9 0-.9z"/><path d="m45 20.5c-.6 0-.6.9 0 .9s.6-.9 0-.9z"/><path d="m48.1 21.5c-.5 0-.5.8 0 .8s.5-.8 0-.8z"/><path d="m57.3 21.5c-.6 0-.6.9 0 .9s.6-.9 0-.9z"/><path d="m61.4 28.7c-.6 0-.6 1 0 1 .7 0 .7-1 0-1z"/><path d="m64.9 34.7c-.5 0-.5.8 0 .8s.5-.8 0-.8z"/><path d="m64.9 38.6c-.6 0-.7 1 0 1s.7-1 0-1z"/><path d="m62.9 38.7c-.5 0-.5.8 0 .8s.5-.8 0-.8z"/><path d="m63.2 30.8c-.7 0-.7 1.1 0 1.1.7-.1.7-1.1 0-1.1z"/><path d="m68.9 43.8c-.5 0-.5.8 0 .8s.5-.8 0-.8z"/><path d="m62.4 41.1c-.7 0-.7 1 0 1 .6 0 .6-1 0-1z"/><path d="m68.1 41c-.6 0-.6.9 0 .9s.6-.9 0-.9z"/><path d="m61.9 36.1c-.6 0-.6 1 0 1 .6-.1.6-1 0-1z"/><path d="m71.8 47.4c-.7 0-.7 1.2 0 1.2s.7-1.2 0-1.2z"/><path d="m68.7 48.4c-.8 0-.8 1.3 0 1.3.9 0 .9-1.3 0-1.3z"/><path d="m69.8 45.2c-.7 0-.7 1 0 1 .7.1.7-1 0-1z"/><path d="m65.9 46.5c-.8 0-.8 1.3 0 1.3s.8-1.3 0-1.3z"/><path d="m72.9 51.9c-.7 0-.7 1.1 0 1.1s.7-1.1 0-1.1z"/><path d="m71.9 54.8c-.7 0-.7 1 0 1s.7-1 0-1z"/><path d="m75.6 55.8c-.6 0-.6 1 0 1 .6-.1.6-1 0-1z"/><path d="m73.5 57.1c-.5 0-.5.8 0 .8s.5-.8 0-.8z"/><path d="m77.8 61.5c-.6 0-.6 1 0 1s.6-1 0-1z"/><path d="m80.2 61.5c-.6 0-.6.9 0 .9.5 0 .5-.9 0-.9z"/><path d="m70.6 58.9c-.5 0-.5.8 0 .8.5-.1.5-.8 0-.8z"/><path d="m77.8 66.4c-.7 0-.7 1 0 1 .6 0 .7-1 0-1z"/><path d="m75.6 69.5c-.5 0-.5.8 0 .8s.5-.8 0-.8z"/><path d="m78.1 71.4c-.6 0-.6.9 0 .9s.6-.9 0-.9z"/><path d="m77.6 78.1c-.5 0-.5.8 0 .8s.5-.8 0-.8z"/><path d="m70.2 72.5c-.5 0-.5.8 0 .8s.5-.8 0-.8z"/><path d="m84 75.4c-.9 0-.9 1.3 0 1.3.9.1.9-1.3 0-1.3z"/><path d="m84 68.8c-.8 0-.8 1.2 0 1.2.8.1.8-1.2 0-1.2z"/><path d="m85.9 71.9c-.7 0-.7 1.1 0 1.1s.7-1.1 0-1.1z"/><path d="m88.1 76.6c-.8 0-.8 1.2 0 1.2s.8-1.2 0-1.2z"/><path d="m85.7 77.9c-.6 0-.6.9 0 .9s.6-.9 0-.9z"/><path d="m84.9 80.9c-.6 0-.6.9 0 .9s.6-.9 0-.9z"/><path d="m88.9 79.2c-.7 0-.7 1.1 0 1.1s.7-1.1 0-1.1z"/><path d="m89.1 84.8c-.8 0-.8 1.3 0 1.3s.8-1.3 0-1.3z"/><path d="m87.3 87.6c-.6 0-.6.9 0 .9s.6-.9 0-.9z"/><path d="m86.2 85.2c-.6 0-.6.9 0 .9s.6-.9 0-.9z"/><path d="m83.4 83.4c-.6 0-.6.9 0 .9.5.1.6-.9 0-.9z"/><path d="m81.8 86c-.6 0-.6.9 0 .9.5 0 .5-.9 0-.9z"/><path d="m80.7 80.9c-.6 0-.6.9 0 .9.5 0 .5-.9 0-.9z"/><path d="m79.1 75.4c-.5 0-.5.8 0 .8.4 0 .5-.8 0-.8z"/><path d="m81.1 70.4c-.6 0-.6.9 0 .9s.6-.9 0-.9z"/><path d="m74.5 66.2c-.6 0-.6 1 0 1s.6-1 0-1z"/><path d="m75.7 62.6c-.8 0-.8 1.2 0 1.2s.8-1.2 0-1.2z"/><path d="m75.2 59.9c-.6 0-.6.9 0 .9s.6-.9 0-.9z"/><path d="m73.8 54.8c-.6 0-.6 1 0 1 .7 0 .7-1 0-1z"/><path d="m69.8 53.1c-.6 0-.6 1 0 1 .7-.1.7-1 0-1z"/><path d="m72.2 50c-.7 0-.7 1.1 0 1.1.8 0 .8-1.1 0-1.1z"/><path d="m70.2 48.3c-.8 0-.8 1.2 0 1.2.8.1.8-1.2 0-1.2z"/><path d="m67.4 44.1c-.7 0-.7 1.1 0 1.1s.7-1.1 0-1.1z"/><path d="m64.6 41c-.4 0-.4.7 0 .7.4-.1.4-.7 0-.7z"/><path d="m65.2 36.7c-.5 0-.5.8 0 .8s.5-.8 0-.8z"/><path d="m60.3 35.3c-.5 0-.5.7 0 .7s.5-.7 0-.7z"/><path d="m62.8 32.4c-.6 0-.6 1 0 1 .7 0 .7-1 0-1z"/><path d="m61.2 30.4c-.6 0-.6 1 0 1s.6-1 0-1z"/><path d="m58 32.1c-.4 0-.4.7 0 .7.5 0 .5-.7 0-.7z"/><path d="m58 28.3c-.5 0-.5.8 0 .8s.5-.8 0-.8z"/><path d="m55.4 27.4c-.6 0-.6.9 0 .9.6.1.6-.9 0-.9z"/><path d="m56.8 24.2c-.6 0-.6.9 0 .9.6-.1.6-.9 0-.9z"/><path d="m54.5 22.9c-.6 0-.6.9 0 .9s.6-.9 0-.9z"/><path d="m55.4 20.1c-.6 0-.6.9 0 .9s.6-.9 0-.9z"/><path d="m52.9 21.3c-.4 0-.4.7 0 .7s.4-.7 0-.7z"/><path d="m53.5 18.4c-.5 0-.5.7 0 .7.4 0 .4-.7 0-.7z"/><path d="m51 17.5c-.5 0-.5.7 0 .7s.5-.7 0-.7z"/><path d="m51.6 15.1c-.5 0-.5.8 0 .8s.5-.8 0-.8z"/><path d="m49.5 14.6c-.5 0-.5.8 0 .8s.5-.8 0-.8z"/><path d="m48.3 13.9c-.5 0-.5.7 0 .7.4 0 .4-.7 0-.7z"/><path d="m84.5 78.9c-.6 0-.6 1 0 1 .6-.1.6-1 0-1z"/><path d="m87.2 81.5c-.8 0-.8 1.3 0 1.3s.8-1.3 0-1.3z"/><path d="m88.1 83.9c-.8 0-.8 1.3 0 1.3s.8-1.3 0-1.3z"/><path d="m85.4 89.3c-.7 0-.7 1.1 0 1.1.8.1.8-1.1 0-1.1z"/><path d="m82 92.1c-.6 0-.6.9 0 .9.5 0 .5-.9 0-.9z"/><path d="m84.6 93.8c-.5 0-.5.8 0 .8.6 0 .6-.8 0-.8z"/><path d="m79.6 89.8c-.5 0-.5.8 0 .8s.5-.8 0-.8z"/><path d="m75.5 83.5c-.5 0-.5.8 0 .8s.5-.8 0-.8z"/><path d="m75 75c-.6 0-.6.9 0 .9s.6-.9 0-.9z"/><path d="m67.5 82.8c-.4 0-.4.6 0 .6s.4-.6 0-.6z"/><path d="m71.3 88c-.6 0-.6.9 0 .9s.6-.9 0-.9z"/><path d="m67.7 92c-.4 0-.4.6 0 .6s.4-.6 0-.6z"/><path d="m71.4 96.7c-.6 0-.6.9 0 .9s.6-.9 0-.9z"/><path d="m75.3 95.5c-.5 0-.5.8 0 .8s.5-.8 0-.8z"/><path d="m77.4 87.9c-.5 0-.5.7 0 .7.5.1.5-.7 0-.7z"/><path d="m71.8 93.6c-.3 0-.3.4 0 .4s.3-.4 0-.4z"/><path d="m74.2 104.4c-.3 0-.3.5 0 .5s.3-.5 0-.5z"/><path d="m67.4 102.3c-.4 0-.4.7 0 .7s.4-.7 0-.7z"/><path d="m61.4 82.1c-.5 0-.5.7 0 .7s.5-.7 0-.7z"/><path d="m65.5 69.8c-.4 0-.4.6 0 .6s.4-.6 0-.6z"/><path d="m58 72.3c-.4 0-.4.6 0 .6.4-.1.4-.6 0-.6z"/><path d="m64.2 60.8c-.5 0-.5.7 0 .7.4 0 .5-.7 0-.7z"/><path d="m67.7 57.6c-.6 0-.6.9 0 .9.6.1.6-.9 0-.9z"/><path d="m60.4 55.7c-.6 0-.6.9 0 .9.6-.1.6-.9 0-.9z"/><path d="m54.8 58.8c-.7 0-.7 1.1 0 1.1.7-.1.7-1.1 0-1.1z"/><path d="m50.8 61.2c-.3 0-.3.5 0 .5s.3-.5 0-.5z"/><path d="m57.9 50.2c-.6 0-.6.9 0 .9s.6-.9 0-.9z"/><path d="m55.6 43.1c-.6 0-.6 1 0 1 .6-.1.7-1 0-1z"/><path d="m51.1 41c-.5 0-.5.7 0 .7.4 0 .4-.7 0-.7z"/><path d="m55.4 35.6c-.6 0-.6 1 0 1 .6-.1.6-1 0-1z"/><path d="m54.3 31c-.5 0-.5.8 0 .8s.5-.8 0-.8z"/><path d="m50 30.2c-.5 0-.5.7 0 .7s.5-.7 0-.7z"/><path d="m49.2 25.2c-.5 0-.5.8 0 .8s.5-.8 0-.8z"/><path d="m43.7 23.7c-.4 0-.4.6 0 .6s.4-.6 0-.6z"/><path d="m44.5 30.4c-.6 0-.6.9 0 .9s.6-.9 0-.9z"/><path d="m40.5 35.2c-.5 0-.5.8 0 .8.5.1.5-.8 0-.8z"/><path d="m43.2 41.5c-.6 0-.6.9 0 .9.5 0 .5-.9 0-.9z"/><path d="m38.9 44.6c-.2 0-.2.3 0 .3s.2-.3 0-.3z"/><path d="m36.8 29.2c-.3 0-.3.5 0 .5.3.1.3-.5 0-.5z"/><path d="m33.4 33.9c-.2 0-.2.4 0 .4.3-.1.3-.4 0-.4z"/><path d="m36.8 38.9c-.4 0-.4.6 0 .6.4.1.4-.6 0-.6z"/><path d="m43.6 26.9c-.5 0-.5.7 0 .7s.5-.7 0-.7z"/><path d="m40.7 20.8c-.4 0-.4.6 0 .6.3 0 .3-.6 0-.6z"/><path d="m45.7 17.2c-.5 0-.5.8 0 .8.6 0 .6-.8 0-.8z"/><path d="m39.7 15.1c-.5 0-.5.7 0 .7s.5-.7 0-.7z"/><path d="m31.3 22.4c-.1 0-.1.2 0 .2.1.1.1-.2 0-.2z"/><path d="m47.7 52.2c-.5 0-.5.8 0 .8s.5-.8 0-.8z"/><path d="m46.4 60.3c-.4 0-.4.7 0 .7s.4-.7 0-.7z"/><path d="m51.3 70.6c-.5 0-.5.8 0 .8.5-.1.5-.8 0-.8z"/><path d="m65.1 63.3c-.6 0-.6.9 0 .9.6.1.6-.9 0-.9z"/><path d="m52.6 37.8c-.7 0-.7 1 0 1 .7.1.7-1 0-1z"/><path d="m45 49.6c-.5 0-.5.8 0 .8s.5-.8 0-.8z"/><path d="m28.1 28.9c-.7 0-.7 1 0 1 .6 0 .6-1 0-1z"/><path d="m28.5 16.8c-.7 0-.7 1.1 0 1.1s.7-1.1 0-1.1z"/><path d="m59.4 69.6c-.6 0-.6.9 0 .9s.6-.9 0-.9z"/><path d="m58.5 23.7c-.7 0-.7 1.2 0 1.2.8 0 .8-1.2 0-1.2z"/><path d="m57.3 26.7c-.7 0-.7 1.1 0 1.1s.7-1.1 0-1.1z"/><path d="m55.4 24.7c-.7 0-.7 1.1 0 1.1s.7-1.1 0-1.1z"/><path d="m59.5 29.2c-.7 0-.7 1.1 0 1.1s.7-1.1 0-1.1z"/><path d="m58 30.5c-.6 0-.7 1 0 1 .6 0 .6-1 0-1z"/><path d="m60.4 33c-.6 0-.6.9 0 .9s.6-.9 0-.9z"/><path d="m63.7 36.9c-.6 0-.6.9 0 .9s.6-.9 0-.9z"/><path d="m59.2 37.5c-.7 0-.7 1.1 0 1.1s.7-1.1 0-1.1z"/><path d="m57.9 33.9c-.6 0-.6 1 0 1s.6-1 0-1z"/><path d="m54.3 28.6c-.8 0-.8 1.2 0 1.2s.8-1.2 0-1.2z"/><path d="m55.4 33.5c-.5 0-.5.7 0 .7s.5-.7 0-.7z"/><path d="m56.6 38.6c-.4 0-.4.6 0 .6s.4-.6 0-.6z"/><path d="m59.5 40.1c-.6 0-.6.9 0 .9s.6-.9 0-.9z"/><path d="m63.7 43.2c-.6 0-.6 1 0 1 .6-.1.6-1 0-1z"/><path d="m60.2 43.9c-.4 0-.4.7 0 .7s.4-.7 0-.7z"/><path d="m66.7 51c-.6 0-.6.9 0 .9s.6-.9 0-.9z"/><path d="m61.9 47.5c-.6 0-.7 1 0 1s.7-1 0-1z"/><path d="m69.2 50.8c-.6 0-.6.9 0 .9.6.1.6-.9 0-.9z"/><path d="m54.5 20.3c-.5 0-.5.8 0 .8.6 0 .6-.8 0-.8z"/><path d="m54 23.3c-.5 0-.5.7 0 .7.4.1.4-.7 0-.7z"/><path d="m54 21.4c-.3 0-.3.4 0 .4.2.1.2-.4 0-.4z"/><path d="m54.9 21.8c-.6 0-.6.9 0 .9.6-.1.6-.9 0-.9z"/><path d="m51.5 20.3c-.6 0-.6.9 0 .9s.6-.9 0-.9z"/><path d="m52.8 18.6c-.6 0-.6.9 0 .9s.6-.9 0-.9z"/><path d="m52.7 17.4c-.6 0-.6 1 0 1s.6-1 0-1z"/><path d="m54.7 20.2c-.1 0-.1 0-.2 0-.7-.1-.7 1.1 0 1.1h.2c.7-.1.7-1 0-1.1z"/><path d="m52.8 21.9c-.7 0-.7 1.1 0 1.1.7-.1.7-1.1 0-1.1z"/><path d="m54.9 23.5c-.7 0-.7 1.1 0 1.1s.7-1.1 0-1.1z"/><path d="m56.4 25c-.7 0-.7 1.1 0 1.1s.7-1.1 0-1.1z"/><path d="m57.5 28.2c-.7 0-.7 1.1 0 1.1s.7-1.1 0-1.1z"/><path d="m58.3 29.4c-.6 0-.6.9 0 .9.5 0 .5-.9 0-.9z"/><path d="m60.3 31.4c-.6 0-.6 1 0 1 .7 0 .7-1 0-1z"/><path d="m60 33.4c-.7 0-.7 1.1 0 1.1.7.1.7-1.1 0-1.1z"/><path d="m62.4 36.9c-.8 0-.8 1.2 0 1.2.8.1.8-1.2 0-1.2z"/><path d="m63.7 38.6c-.8 0-.8 1.3 0 1.3s.8-1.3 0-1.3z"/><path d="m65.4 42.2c-.8 0-.8 1.2 0 1.2s.8-1.2 0-1.2z"/><path d="m66.9 45.4c-.5 0-.5.8 0 .8s.5-.8 0-.8z"/><path d="m64.6 41.5c-.7 0-.7 1.1 0 1.1.8 0 .8-1.1 0-1.1z"/><path d="m65.2 40.1c-.6 0-.6.9 0 .9s.6-.9 0-.9z"/><path d="m66.9 41.9c-.7 0-.7 1.1 0 1.1s.7-1.1 0-1.1z"/><path d="m66.9 45.9c-.8 0-.8 1.3 0 1.3s.8-1.3 0-1.3z"/><path d="m64.4 45c-.8 0-.8 1.2 0 1.2s.8-1.2 0-1.2z"/><path d="m63.3 41.1c-.7 0-.7 1.1 0 1.1s.7-1.1 0-1.1z"/><path d="m68.2 47.3c-.7 0-.7 1 0 1 .7.1.7-1 0-1z"/><path d="m69.7 50c-.6 0-.6 1 0 1 .6-.1.6-1 0-1z"/><path d="m69.1 51c-.5 0-.5.8 0 .8s.5-.8 0-.8z"/><path d="m68.6 53.4c-.8 0-.8 1.2 0 1.2.7 0 .7-1.2 0-1.2z"/><path d="m64.1 44c-.7 0-.7 1 0 1 .6 0 .6-1 0-1z"/><path d="m67.4 46.3c-.5 0-.5.7 0 .7.5.1.5-.7 0-.7z"/><path d="m66.3 51c-.8 0-.8 1.2 0 1.2s.8-1.2 0-1.2z"/><path d="m69.7 52c-.7 0-.7 1 0 1s.7-1 0-1z"/><path d="m71.2 53.3c-.7 0-.7 1 0 1 .6 0 .6-1 0-1z"/><path d="m73.2 55.6c-.6 0-.6 1 0 1 .7 0 .7-1 0-1z"/><path d="m72.9 57.9c-.8 0-.8 1.3 0 1.3.8-.1.8-1.3 0-1.3z"/><path d="m72 57.6c-.1-.8-1.1-.8-1.2 0v.2c0 .3.3.6.6.6s.7-.3.6-.6c0-.1 0-.2 0-.2z"/><path d="m73 53.7c-.9 0-.9 1.3 0 1.3.9.1.9-1.3 0-1.3z"/><path d="m73.8 56c-.9 0-.9 1.3 0 1.3s.9-1.3 0-1.3z"/><path d="m75.5 61c-.9 0-.9 1.4 0 1.4s.9-1.4 0-1.4z"/><path d="m74.5 63.9c-.8 0-.8 1.2 0 1.2s.8-1.2 0-1.2z"/><path d="m72.3 61.4c-.6 0-.6.9 0 .9.5 0 .5-.9 0-.9z"/><path d="m71.9 60c-.7 0-.7 1.1 0 1.1.8 0 .8-1.1 0-1.1z"/><path d="m73.6 59.5c-.6 0-.6.9 0 .9.6.1.6-.9 0-.9z"/><path d="m77 60.9c-.6 0-.6.9 0 .9s.6-.9 0-.9z"/><path d="m77.7 64.5c-.7 0-.7 1.1 0 1.1s.7-1.1 0-1.1z"/><path d="m69.9 63.2c-.6 0-.6 1 0 1s.6-1 0-1z"/><path d="m69.3 60c-.7 0-.7 1.1 0 1.1s.7-1.1 0-1.1z"/><path d="m67.8 56.4c-.3 0-.3.5 0 .5.4 0 .4-.5 0-.5z"/><path d="m77.7 63.7c-.6 0-.6.9 0 .9s.6-.9 0-.9z"/><path d="m77 66.6c-.7 0-.7 1 0 1 .6 0 .6-1 0-1z"/><path d="m77.2 68.3c-.6 0-.6.9 0 .9.5 0 .5-.9 0-.9z"/><path d="m79.8 68.2c-.5 0-.5.7 0 .7.5.1.5-.7 0-.7z"/><path d="m80 70.4c-.6 0-.6.9 0 .9s.6-.9 0-.9z"/><path d="m80.7 71.1c-.6 0-.6 1 0 1 .7 0 .7-1 0-1z"/><path d="m83.7 72.5c-.6 0-.6.9 0 .9.6-.1.6-.9 0-.9z"/><path d="m83.7 73.8c-.6 0-.6.9 0 .9s.6-.9 0-.9z"/><path d="m83.3 74.6c-.7 0-.7 1 0 1 .7.1.7-1 0-1z"/><path d="m82.4 72.1c-.7 0-.7 1.2 0 1.2s.8-1.2 0-1.2z"/><path d="m81.7 77.1c-.6 0-.6.9 0 .9.6.1.6-.9 0-.9z"/><path d="m85.8 76.7c-.7 0-.7 1.1 0 1.1.7-.1.7-1.1 0-1.1z"/><path d="m81.8 74.6c-.6 0-.7 1 0 1 .7.1.7-1 0-1z"/><path d="m84.6 78.3c-.6 0-.6.9 0 .9s.6-.9 0-.9z"/><path d="m86.5 80.7c-.6 0-.6 1 0 1 .6-.1.6-1 0-1z"/><path d="m83.5 80.7c-.5 0-.5.8 0 .8.6.1.6-.8 0-.8z"/><path d="m84.6 83.4c-.7 0-.7 1.1 0 1.1s.7-1.1 0-1.1z"/><path d="m86.9 84.6c-.6 0-.6.9 0 .9s.6-.9 0-.9z"/><path d="m81.1 79.5c-.7 0-.7 1.1 0 1.1.7-.1.7-1.1 0-1.1z"/><path d="m80.5 73.8c-.6 0-.6.9 0 .9s.6-.9 0-.9z"/><path d="m79.8 70.5c-.4 0-.4.6 0 .6.4.1.4-.6 0-.6z"/><path d="m78.5 68.4c-.3 0-.3.5 0 .5s.3-.5 0-.5z"/><path d="m79.2 68.4c-.2 0-.2.3 0 .3.2.1.2-.3 0-.3z"/><path d="m78.5 69.5c-.6 0-.6.9 0 .9.5-.1.5-.9 0-.9z"/><path d="m81.5 68.5c-.7 0-.7 1 0 1 .6 0 .6-1 0-1z"/><path d="m79 66.4c-.6 0-.6 1 0 1s.6-1 0-1z"/><path d="m73.6 67.9c-.7 0-.7 1.1 0 1.1s.7-1.1 0-1.1z"/><path d="m73.4 72.7c-.6 0-.6.9 0 .9.6-.1.6-.9 0-.9z"/><path d="m76.8 74.5c-.4 0-.4.6 0 .6s.4-.6 0-.6z"/><path d="m78.5 76.6c-.5 0-.5.8 0 .8s.5-.8 0-.8z"/><path d="m67.6 56.2c-.5 0-.5.8 0 .8.6.1.6-.8 0-.8z"/><path d="m62.9 51.6c-.5 0-.5.7 0 .7s.5-.7 0-.7z"/><path d="m62.6 46.1c-.6 0-.6.9 0 .9s.6-.9 0-.9z"/><path d="m53 26.6c-.6 0-.6.9 0 .9s.6-.9 0-.9z"/><path d="m49.7 26.5c-.3 0-.3.4 0 .4.2 0 .2-.4 0-.4z"/><path d="m49.7 20.7c-.5 0-.5.8 0 .8s.5-.8 0-.8z"/><path d="m47.2 18.2c-.6 0-.6 1 0 1 .7-.1.7-1 0-1z"/><path d="m43.1 13.5c-.6 0-.7 1 0 1s.7-1 0-1z"/><path d="m77 66.9c-.5 0-.5.8 0 .8s.5-.8 0-.8z"/><path d="m81.8 71.6c-.7 0-.7 1 0 1 .7.1.7-1 0-1z"/><path d="m83 77c-.3 0-.3.4 0 .4.2 0 .2-.4 0-.4z"/><path d="m84.1 77.2c-.8 0-.8 1.2 0 1.2s.8-1.2 0-1.2z"/><path d="m85 74.6c-.6 0-.7 1 0 1 .7.1.7-1 0-1z"/><path d="m88.4 81.4c-.6 0-.6 1 0 1s.6-1 0-1z"/><path d="m88.9 84.1c-.7 0-.7 1.1 0 1.1.8.1.8-1.1 0-1.1z"/><path d="m87.3 88.1c-.7 0-.7 1.1 0 1.1s.7-1.1 0-1.1z"/><path d="m48.3 88.2c.7 0 .7 1 0 1s-.7-1 0-1z"/><path d="m47.8 95.6c.5 0 .5.8 0 .8s-.5-.8 0-.8z"/><path d="m44.4 96.2c.8 0 .8 1.2 0 1.2-.7 0-.8-1.2 0-1.2z"/><path d="m44 100.4c.7 0 .7 1.1 0 1.1s-.7-1.1 0-1.1z"/><path d="m42.5 102.9c.7 0 .7 1.1 0 1.1-.7.1-.7-1.1 0-1.1z"/><path d="m40.5 104.1c.8 0 .8 1.2 0 1.2-.8.1-.8-1.2 0-1.2z"/><path d="m37.8 112.8c.7 0 .7 1 0 1-.7.1-.7-1 0-1z"/><path d="m40.8 114.2c.8 0 .8 1.2 0 1.2s-.8-1.2 0-1.2z"/><path d="m35.4 115.2c.7 0 .7 1.1 0 1.1s-.7-1.1 0-1.1z"/><path d="m32.7 120.5c.6 0 .6.9 0 .9s-.6-.9 0-.9z"/><path d="m37.5 108.9c.6 0 .6.9 0 .9s-.6-.9 0-.9z"/><path d="m42.7 108.2c.7 0 .7 1 0 1-.7.1-.7-1 0-1z"/><path d="m28.9 123.2c.6 0 .6.9 0 .9s-.6-.9 0-.9z"/><path d="m28.2 128c.6 0 .6.9 0 .9-.5 0-.5-.9 0-.9z"/><path d="m25.8 128.6c.6 0 .6.9 0 .9-.5 0-.5-.9 0-.9z"/><path d="m24.4 132.9c.6 0 .6.9 0 .9s-.6-.9 0-.9z"/><path d="m27 135.7c.5 0 .5.8 0 .8-.6 0-.6-.8 0-.8z"/><path d="m29.8 130.6c.5 0 .5.8 0 .8s-.5-.8 0-.8z"/><path d="m33.8 125.1c.6 0 .6 1 0 1s-.6-1 0-1z"/><path d="m36.2 122c.5 0 .5.8 0 .8s-.5-.8 0-.8z"/><path d="m22.7 133c.6 0 .6 1 0 1-.7 0-.7-1 0-1z"/><path d="m23 138.7c.5 0 .5.7 0 .7s-.5-.7 0-.7z"/><path d="m23.6 141.7c.5 0 .5.8 0 .8s-.5-.8 0-.8z"/><path d="m19.8 141.7c.6 0 .6.9 0 .9s-.6-.9 0-.9z"/><path d="m17.7 143.4c.7 0 .7 1.1 0 1.1-.7.1-.7-1.1 0-1.1z"/><path d="m16.8 148.8c.6 0 .6.9 0 .9s-.6-.9 0-.9z"/><path d="m15.2 151.2c.6 0 .6 1 0 1-.6-.1-.6-1 0-1z"/><path d="m17.9 152.4c.5 0 .5.8 0 .8s-.5-.8 0-.8z"/><path d="m21.2 147.5c.6 0 .6.9 0 .9-.6.1-.6-.9 0-.9z"/><path d="m23 143c.5 0 .5.8 0 .8s-.5-.8 0-.8z"/><path d="m20.9 136.6c.6 0 .6.9 0 .9s-.6-.9 0-.9z"/><path d="m23.3 135.6c.6 0 .7 1 0 1-.6 0-.6-1 0-1z"/><path d="m29.7 131.7c.7 0 .7 1.1 0 1.1s-.7-1.1 0-1.1z"/><path d="m33.2 135.4c.7 0 .7 1.1 0 1.1-.7-.1-.7-1.1 0-1.1z"/><path d="m36.5 131.8c.4 0 .4.6 0 .6s-.4-.6 0-.6z"/><path d="m40.2 126.7c.4 0 .4.6 0 .6s-.4-.6 0-.6z"/><path d="m37.8 125.1c.5 0 .5.7 0 .7s-.5-.7 0-.7z"/><path d="m41.9 121.1c.6 0 .6.9 0 .9-.6.1-.6-.9 0-.9z"/><path d="m38.2 118.5c.5 0 .5.8 0 .8s-.5-.8 0-.8z"/><path d="m43.7 115.6c.4 0 .4.6 0 .6-.5 0-.5-.6 0-.6z"/><path d="m48.1 116.1c.4 0 .4.6 0 .6s-.4-.6 0-.6z"/><path d="m47.6 110.1c.3 0 .3.4 0 .4-.2 0-.2-.4 0-.4z"/><path d="m43.5 111.1c.5 0 .5.7 0 .7s-.5-.7 0-.7z"/><path d="m45.6 105.6c.6 0 .6.9 0 .9s-.6-.9 0-.9z"/><path d="m51.9 104.4c.4 0 .4.7 0 .7s-.4-.7 0-.7z"/><path d="m54.5 103.7c.4 0 .4.6 0 .6s-.4-.6 0-.6z"/><path d="m52.1 98.7c.3 0 .3.5 0 .5-.3-.1-.3-.5 0-.5z"/><path d="m47.3 99.3c.5 0 .5.7 0 .7-.4 0-.4-.7 0-.7z"/><path d="m55.9 98.7c.4 0 .4.7 0 .7s-.4-.7 0-.7z"/><path d="m52.6 92.4c.5 0 .5.8 0 .8-.6.1-.6-.8 0-.8z"/><path d="m47.5 92.5c.6 0 .6 1 0 1-.7 0-.7-1 0-1z"/><path d="m45.6 94.8c.5 0 .5.8 0 .8s-.5-.8 0-.8z"/><path d="m51.1 94.3c.6 0 .6.9 0 .9s-.6-.9 0-.9z"/><path d="m49.7 90c.4 0 .4.6 0 .6s-.4-.6 0-.6z"/><path d="m46.5 91.1c.6 0 .6.9 0 .9s-.6-.9 0-.9z"/><path d="m42.4 98.4c.6 0 .6 1 0 1-.7 0-.7-1 0-1z"/><path d="m38.9 104.4c.5 0 .5.8 0 .8-.5-.1-.5-.8 0-.8z"/><path d="m38.9 108.2c.6 0 .7 1 0 1s-.7-1 0-1z"/><path d="m40.9 108.3c.5 0 .5.8 0 .8s-.5-.8 0-.8z"/><path d="m40.6 100.4c.7 0 .7 1.1 0 1.1s-.7-1.1 0-1.1z"/><path d="m34.9 113.4c.5 0 .5.8 0 .8s-.5-.8 0-.8z"/><path d="m41.4 110.8c.7 0 .7 1 0 1-.6 0-.6-1 0-1z"/><path d="m35.7 110.7c.6 0 .6.9 0 .9s-.6-.9 0-.9z"/><path d="m41.9 105.7c.6 0 .6 1 0 1s-.6-1 0-1z"/><path d="m32 117.1c.7 0 .7 1.2 0 1.2-.7-.1-.7-1.2 0-1.2z"/><path d="m35.1 118.1c.8 0 .8 1.3 0 1.3-.9 0-.9-1.3 0-1.3z"/><path d="m34 114.9c.7 0 .7 1 0 1s-.7-1 0-1z"/><path d="m37.9 116.2c.8 0 .8 1.3 0 1.3s-.8-1.3 0-1.3z"/><path d="m30.9 121.5c.7 0 .7 1.1 0 1.1s-.7-1.1 0-1.1z"/><path d="m31.9 124.4c.7 0 .7 1 0 1-.7.1-.7-1 0-1z"/><path d="m28.2 125.4c.6 0 .6 1 0 1s-.6-1 0-1z"/><path d="m30.3 126.8c.5 0 .5.8 0 .8s-.5-.8 0-.8z"/><path d="m26 131.1c.6 0 .6 1 0 1s-.6-1 0-1z"/><path d="m23.6 131.2c.6 0 .6.9 0 .9-.5 0-.5-.9 0-.9z"/><path d="m33.2 128.5c.5 0 .5.8 0 .8s-.5-.8 0-.8z"/><path d="m26 136c.7 0 .7 1 0 1-.7.1-.7-1 0-1z"/><path d="m28.2 139.2c.5 0 .5.8 0 .8s-.5-.8 0-.8z"/><path d="m25.7 141c.6 0 .6.9 0 .9s-.6-.9 0-.9z"/><path d="m26.2 147.8c.5 0 .5.8 0 .8-.5-.1-.5-.8 0-.8z"/><path d="m33.6 142.2c.5 0 .5.8 0 .8s-.5-.8 0-.8z"/><path d="m19.8 145.1c.9 0 .9 1.3 0 1.3s-.9-1.3 0-1.3z"/><path d="m19.8 138.5c.8 0 .8 1.2 0 1.2s-.8-1.2 0-1.2z"/><path d="m17.9 141.6c.7 0 .7 1.1 0 1.1s-.7-1.1 0-1.1z"/><path d="m15.7 146.3c.8 0 .8 1.2 0 1.2s-.8-1.2 0-1.2z"/><path d="m18.1 147.6c.6 0 .6.9 0 .9-.6-.1-.6-.9 0-.9z"/><path d="m18.9 150.6c.6 0 .6.9 0 .9s-.6-.9 0-.9z"/><path d="m14.9 148.9c.7 0 .7 1.1 0 1.1s-.7-1.1 0-1.1z"/><path d="m23.1 150.6c.6 0 .6.9 0 .9-.5 0-.5-.9 0-.9z"/><path d="m24.7 145.1c.5 0 .5.8 0 .8-.5-.1-.5-.8 0-.8z"/><path d="m22.7 140.1c.6 0 .6.9 0 .9s-.6-.9 0-.9z"/><path d="m29.3 135.9c.6 0 .6 1 0 1s-.6-1 0-1z"/><path d="m28.1 132.3c.8 0 .8 1.2 0 1.2s-.8-1.2 0-1.2z"/><path d="m28.6 129.6c.6 0 .6.9 0 .9s-.6-.9 0-.9z"/><path d="m30 124.5c.6 0 .6 1 0 1-.7-.1-.7-1 0-1z"/><path d="m34 122.7c.6 0 .6 1 0 1-.7 0-.7-1 0-1z"/><path d="m31.6 119.6c.7 0 .7 1.1 0 1.1-.8.1-.8-1.1 0-1.1z"/><path d="m33.6 118c.8 0 .8 1.2 0 1.2s-.8-1.2 0-1.2z"/><path d="m36.4 113.7c.7 0 .7 1.1 0 1.1s-.7-1.1 0-1.1z"/><path d="m39.2 110.6c.4 0 .4.7 0 .7s-.4-.7 0-.7z"/><path d="m38.6 106.3c.5 0 .5.8 0 .8-.5.1-.5-.8 0-.8z"/><path d="m43.5 104.9c.5 0 .5.7 0 .7-.5.1-.5-.7 0-.7z"/><path d="m41 102.1c.6 0 .6 1 0 1-.7 0-.7-1 0-1z"/><path d="m42.6 100.1c.6 0 .6 1 0 1s-.6-1 0-1z"/><path d="m45.8 101.8c.4 0 .4.7 0 .7-.5-.1-.5-.7 0-.7z"/><path d="m45.8 98c.5 0 .5.8 0 .8s-.5-.8 0-.8z"/><path d="m48.4 97.1c.6 0 .6.9 0 .9s-.6-.9 0-.9z"/><path d="m47 93.8c.6 0 .6.9 0 .9s-.6-.9 0-.9z"/><path d="m49.3 92.6c.6 0 .6.9 0 .9s-.6-.9 0-.9z"/><path d="m48.3 89.7c.6 0 .6.9 0 .9-.5 0-.5-.9 0-.9z"/><path d="m50.9 91c.4 0 .4.7 0 .7-.4-.1-.4-.7 0-.7z"/><path d="m19.3 148.5c.6 0 .6 1 0 1s-.6-1 0-1z"/><path d="m16.6 151.2c.8 0 .8 1.3 0 1.3s-.8-1.3 0-1.3z"/><path d="m28.8 144.7c.6 0 .6.9 0 .9s-.6-.9 0-.9z"/><path d="m36.3 152.4c.4 0 .4.6 0 .6-.4.1-.4-.6 0-.6z"/><path d="m42.4 151.7c.5 0 .5.7 0 .7-.5.1-.5-.7 0-.7z"/><path d="m38.3 139.5c.4 0 .4.6 0 .6s-.4-.6 0-.6z"/><path d="m45.8 141.9c.4 0 .4.6 0 .6s-.4-.6 0-.6z"/><path d="m39.6 130.5c.5 0 .5.7 0 .7s-.5-.7 0-.7z"/><path d="m36.1 127.3c.6 0 .6.9 0 .9s-.6-.9 0-.9z"/><path d="m43.4 125.3c.6 0 .6.9 0 .9s-.6-.9 0-.9z"/><path d="m49 128.4c.7 0 .7 1.1 0 1.1s-.7-1.1 0-1.1z"/><path d="m53 130.8c.3 0 .3.5 0 .5-.3.1-.4-.5 0-.5z"/><path d="m45.9 119.8c.6 0 .6.9 0 .9s-.6-.9 0-.9z"/><path d="m48.2 112.7c.6 0 .6 1 0 1s-.7-1 0-1z"/><path d="m52.7 110.7c.5 0 .5.7 0 .7-.4 0-.4-.7 0-.7z"/><path d="m48.4 105.2c.6 0 .6 1 0 1s-.6-1 0-1z"/><path d="m49.5 100.6c.5 0 .5.8 0 .8s-.5-.8 0-.8z"/><path d="m53.8 99.9c.5 0 .5.7 0 .7s-.5-.7 0-.7z"/><path d="m60.6 111.2c.6 0 .6.9 0 .9-.5-.1-.5-.9 0-.9z"/><path d="m64.9 114.2c.2 0 .2.3 0 .3-.2.1-.2-.3 0-.3z"/><path d="m56.1 121.9c.5 0 .5.8 0 .8s-.5-.8 0-.8z"/><path d="m57.4 130c.4 0 .4.7 0 .7s-.4-.7 0-.7z"/><path d="m52.5 140.2c.5 0 .5.8 0 .8s-.5-.8 0-.8z"/><path d="m38.7 133c.6 0 .6.9 0 .9s-.6-.9 0-.9z"/><path d="m51.2 107.5c.7 0 .7 1 0 1s-.7-1 0-1z"/><path d="m58.8 119.2c.5 0 .5.8 0 .8s-.5-.8 0-.8z"/><path d="m44.4 139.3c.6 0 .6.9 0 .9s-.6-.9 0-.9z"/><path d="m45.3 93.4c.7 0 .7 1.2 0 1.2-.8-.1-.8-1.2 0-1.2z"/><path d="m46.5 96.4c.7 0 .7 1.1 0 1.1s-.7-1.1 0-1.1z"/><path d="m48.4 94.3c.7 0 .7 1.1 0 1.1-.7.1-.7-1.1 0-1.1z"/><path d="m44.3 98.8c.7 0 .7 1.1 0 1.1-.7.1-.7-1.1 0-1.1z"/><path d="m45.8 100.1c.6 0 .7 1 0 1-.6 0-.6-1 0-1z"/><path d="m43.4 102.6c.6 0 .6.9 0 .9-.6.1-.6-.9 0-.9z"/><path d="m40.1 106.6c.6 0 .6.9 0 .9s-.6-.9 0-.9z"/><path d="m44.6 107.2c.7 0 .7 1.1 0 1.1s-.7-1.1 0-1.1z"/><path d="m45.9 103.5c.6 0 .6 1 0 1s-.6-1 0-1z"/><path d="m49.5 98.2c.8 0 .8 1.2 0 1.2-.8.1-.8-1.2 0-1.2z"/><path d="m48.4 103.1c.5 0 .5.7 0 .7-.5.1-.5-.7 0-.7z"/><path d="m47.2 108.3c.4 0 .4.6 0 .6-.4-.1-.4-.6 0-.6z"/><path d="m44.3 109.7c.6 0 .6.9 0 .9s-.6-.9 0-.9z"/><path d="m40.1 112.8c.6 0 .6 1 0 1s-.6-1 0-1z"/><path d="m43.6 113.5c.4 0 .4.7 0 .7s-.4-.7 0-.7z"/><path d="m37.1 120.7c.6 0 .6.9 0 .9-.6-.1-.6-.9 0-.9z"/><path d="m41.8 117.2c.6 0 .7 1 0 1-.6 0-.6-1 0-1z"/><path d="m34.6 120.5c.6 0 .6.9 0 .9s-.6-.9 0-.9z"/><path d="m49.3 90c.5 0 .5.8 0 .8-.6 0-.6-.8 0-.8z"/><path d="m49.8 93c.5 0 .5.7 0 .7-.4 0-.4-.7 0-.7z"/><path d="m49.8 91.1c.3 0 .3.4 0 .4-.2 0-.2-.4 0-.4z"/><path d="m48.9 91.4c.6 0 .6.9 0 .9s-.6-.9 0-.9z"/><path d="m49.1 89.9h.2c.7-.1.7 1.1 0 1.1-.1 0-.1 0-.2 0-.7-.2-.7-1.1 0-1.1z"/><path d="m51 91.5c.7 0 .7 1.1 0 1.1s-.7-1.1 0-1.1z"/><path d="m48.9 93.2c.7 0 .7 1.1 0 1.1s-.7-1.1 0-1.1z"/><path d="m47.4 94.7c.7 0 .7 1.1 0 1.1s-.7-1.1 0-1.1z"/><path d="m46.3 97.9c.7 0 .7 1.1 0 1.1s-.7-1.1 0-1.1z"/><path d="m45.5 99.1c.6 0 .6.9 0 .9-.5 0-.5-.9 0-.9z"/><path d="m43.5 101.1c.6 0 .6 1 0 1-.7 0-.7-1 0-1z"/><path d="m43.8 103.1c.7 0 .7 1.1 0 1.1s-.7-1.1 0-1.1z"/><path d="m41.4 106.6c.8 0 .8 1.2 0 1.2s-.8-1.2 0-1.2z"/><path d="m40.1 108.3c.8 0 .8 1.3 0 1.3-.8-.1-.8-1.3 0-1.3z"/><path d="m38.4 111.8c.8 0 .8 1.2 0 1.2-.8.1-.8-1.2 0-1.2z"/><path d="m36.9 115c.5 0 .5.8 0 .8s-.5-.8 0-.8z"/><path d="m39.2 111.1c.7 0 .7 1.1 0 1.1-.8.1-.8-1.1 0-1.1z"/><path d="m38.6 109.7c.6 0 .6.9 0 .9-.6.1-.6-.9 0-.9z"/><path d="m36.9 111.5c.7 0 .7 1.1 0 1.1s-.7-1.1 0-1.1z"/><path d="m36.9 115.6c.8 0 .8 1.3 0 1.3-.8-.1-.8-1.3 0-1.3z"/><path d="m39.4 114.7c.8 0 .8 1.2 0 1.2s-.8-1.2 0-1.2z"/><path d="m40.5 110.8c.7 0 .7 1.1 0 1.1s-.7-1.1 0-1.1z"/><path d="m35.6 117c.7 0 .7 1 0 1s-.7-1 0-1z"/><path d="m34.1 119.6c.6 0 .6 1 0 1s-.6-1 0-1z"/><path d="m34.7 120.7c.5 0 .5.8 0 .8-.5-.1-.5-.8 0-.8z"/><path d="m35.2 123.1c.8 0 .8 1.2 0 1.2-.7 0-.7-1.2 0-1.2z"/><path d="m39.7 113.6c.7 0 .7 1 0 1-.6 0-.6-1 0-1z"/><path d="m36.4 116c.5 0 .5.7 0 .7s-.5-.7 0-.7z"/><path d="m37.5 120.6c.8 0 .8 1.2 0 1.2s-.8-1.2 0-1.2z"/><path d="m34.1 121.6c.7 0 .7 1.1 0 1.1s-.7-1.1 0-1.1z"/><path d="m32.6 123c.7 0 .7 1 0 1-.6 0-.6-1 0-1z"/><path d="m30.6 125.2c.6 0 .6 1 0 1-.7 0-.7-1 0-1z"/><path d="m30.9 127.5c.8 0 .8 1.3 0 1.3s-.8-1.3 0-1.3z"/><path d="m31.8 127.2c.1-.8 1.1-.8 1.2 0v.2c0 .3-.3.6-.6.6s-.7-.3-.6-.6c0 0 0-.1 0-.2z"/><path d="m30.8 123.4c.9 0 .9 1.3 0 1.3s-.9-1.3 0-1.3z"/><path d="m30 125.6c.9 0 .9 1.3 0 1.3-.9.1-.9-1.3 0-1.3z"/><path d="m28.3 130.6c.9 0 .9 1.4 0 1.4s-.9-1.4 0-1.4z"/><path d="m29.3 133.6c.8 0 .8 1.2 0 1.2-.8-.1-.8-1.2 0-1.2z"/><path d="m31.5 131.1c.6 0 .6.9 0 .9-.5 0-.6-.9 0-.9z"/><path d="m31.9 129.6c.7 0 .7 1.1 0 1.1-.8.1-.8-1.1 0-1.1z"/><path d="m30.2 129.2c.6 0 .6.9 0 .9s-.6-.9 0-.9z"/><path d="m26.8 130.5c.6 0 .6.9 0 .9s-.6-.9 0-.9z"/><path d="m26.1 134.2c.7 0 .7 1.1 0 1.1-.7-.1-.7-1.1 0-1.1z"/><path d="m33.9 132.9c.6 0 .6 1 0 1s-.6-1 0-1z"/><path d="m34.5 129.7c.7 0 .7 1.1 0 1.1s-.7-1.1 0-1.1z"/><path d="m36 126c.3 0 .3.5 0 .5-.4.1-.4-.5 0-.5z"/><path d="m26.1 133.3c.6 0 .6.9 0 .9s-.6-.9 0-.9z"/><path d="m26.8 136.3c.7 0 .7 1 0 1-.6 0-.6-1 0-1z"/><path d="m26.6 138c.6 0 .6.9 0 .9-.5 0-.5-.9 0-.9z"/><path d="m24 137.9c.5 0 .5.7 0 .7s-.5-.7 0-.7z"/><path d="m23.8 140c.6 0 .6.9 0 .9-.6.1-.6-.9 0-.9z"/><path d="m23.1 140.8c.6 0 .6 1 0 1-.7 0-.7-1 0-1z"/><path d="m20.1 142.1c.6 0 .6.9 0 .9s-.6-.9 0-.9z"/><path d="m20.1 143.4c.6 0 .6.9 0 .9s-.6-.9 0-.9z"/><path d="m20.5 144.3c.7 0 .7 1 0 1s-.7-1 0-1z"/><path d="m21.4 141.8c.7 0 .7 1.2 0 1.2-.8 0-.8-1.2 0-1.2z"/><path d="m22.1 146.8c.6 0 .6.9 0 .9s-.6-.9 0-.9z"/><path d="m18 146.3c.7 0 .7 1.1 0 1.1s-.7-1.1 0-1.1z"/><path d="m22 144.3c.6 0 .7 1 0 1s-.7-1 0-1z"/><path d="m19.2 147.9c.6 0 .6.9 0 .9s-.6-.9 0-.9z"/><path d="m17.3 150.3c.6 0 .6 1 0 1s-.6-1 0-1z"/><path d="m20.3 150.4c.5 0 .5.8 0 .8-.6 0-.6-.8 0-.8z"/><path d="m22.7 149.2c.7 0 .7 1.1 0 1.1-.7-.1-.7-1.1 0-1.1z"/><path d="m23.3 143.4c.6 0 .6.9 0 .9s-.6-.9 0-.9z"/><path d="m24 140.2c.4 0 .4.6 0 .6s-.4-.6 0-.6z"/><path d="m25.3 138c.3 0 .3.5 0 .5s-.3-.5 0-.5z"/><path d="m24.6 138.1c.2 0 .2.3 0 .3s-.2-.3 0-.3z"/><path d="m25.3 139.1c.6 0 .6.9 0 .9-.5 0-.5-.9 0-.9z"/><path d="m22.3 138.1c.7 0 .7 1 0 1-.6.1-.6-1 0-1z"/><path d="m24.8 136.1c.6 0 .6 1 0 1s-.6-1 0-1z"/><path d="m30.2 137.5c.7 0 .7 1.1 0 1.1s-.7-1.1 0-1.1z"/><path d="m30.4 142.3c.6 0 .6.9 0 .9s-.6-.9 0-.9z"/><path d="m27 144.1c.4 0 .4.6 0 .6s-.4-.6 0-.6z"/><path d="m25.3 146.3c.5 0 .5.8 0 .8s-.5-.8 0-.8z"/><path d="m36.2 125.9c.5 0 .5.8 0 .8-.6 0-.6-.8 0-.8z"/><path d="m40.9 121.3c.5 0 .5.7 0 .7s-.5-.7 0-.7z"/><path d="m41.2 115.7c.6 0 .6.9 0 .9-.6.1-.6-.9 0-.9z"/><path d="m50.8 96.3c.6 0 .6.9 0 .9s-.6-.9 0-.9z"/><path d="m54.1 96.1c.3 0 .3.4 0 .4-.2.1-.2-.4 0-.4z"/><path d="m26.8 136.5c.5 0 .5.8 0 .8-.5.1-.5-.8 0-.8z"/><path d="m22 141.3c.7 0 .7 1 0 1s-.7-1 0-1z"/><path d="m20.8 146.7c.3 0 .3.4 0 .4-.2 0-.2-.4 0-.4z"/><path d="m19.7 146.8c.8 0 .8 1.2 0 1.2s-.8-1.2 0-1.2z"/><path d="m18.8 144.3c.6 0 .7 1 0 1s-.7-1 0-1z"/><path d="m15.4 151.1c.6 0 .6 1 0 1-.6-.1-.6-1 0-1z"/><path d="m15.7 153.6c-.2 0-.4.1-.5.3-.1-.1-.2-.1-.3-.1-.2 0-.3.1-.4.1.5.2 1.1.3 1.8.4 0-.3-.2-.7-.6-.7z"/></g><path d="m129.3 10c-6.8-.9-16.1.4-19.7 7.2-.2.4-.4.9-.6 1.3-3 5.5-1.6 11.2-.8 17.5 1.2 9.3 1.6 18.6 1.1 28-.5 9.9-1.1 19.8-1 29.7.1 10.2 1 20.5 1.9 30.6.3 3.9 3.7 7.3 7.9 6 7.1-2.1 14.7-3.1 21.3-6.6 6.1-3.2 10.7-8.8 13.7-14.8 5.8-11.6 6.2-24.5 7-37.3.7-12 1-24.6-2.9-36.1-4.2-12.8-14-23.8-27.9-25.5zm18.9 60.2c-.5 9.8-.5 20-3.8 29.3-1.9 5.2-5 10.6-9.9 13.5-3.5 2.1-7.5 3.1-11.5 3.8-.1-7.3-.8-14.5-1.4-21.8-.7-9.6-.9-19.3-.7-29 .2-9.3 0-18.4-1.2-27.6-.2-1.5-.5-3-.9-4.5.2-1.7.3-3.4.2-5.2-.1-1.6-.1-4.2-.1-5 0-.1.1-.5.2-.7.3-.2.8-.4 1.4-.6 2.6-.9 5.5-1.1 8.2-.5 9.6 2 15.2 10.5 17.6 19.3 2.6 9.4 2.4 19.3 1.9 29z" fill="#4d5b96"/><path d="m216.4 114.1c-6.1-1.8-13-4.2-19.5-3.3-2.7.4-5.3 1.8-8 2.9 0-9.8-1.5-19.5-1.2-29.3.1-2.9.2-5.9.3-8.8 2.6.5 5.3.7 7.5 1 5.3.8 13.7.1 15-6.6.4-2.3-.2-5-2.5-6.2-2.4-1.2-4.6-1.1-7.2-1.1-2.4 0-4.8-.3-7.2-.5-1.7-.1-3.6-.1-5.4.2-.1-5.3-.3-10.6-.6-15.9-.5-6.4-1.1-12.9-2.1-19.3-.1-.6-.2-1.2-.3-1.9 3 .4 5.8 1.3 8.9 1.1 2.9-.2 5.7-.9 8.4-1.8 3-1.1 12-5 8.9-9.8-3.2-4.9-10.2-1.9-15-1.9-6.2.1-12.2-2.8-18.4-1.2-6.2 1.7-8.9 7.1-7.4 13.1 1.4 5.4 2.2 10.7 2.7 16.3 1.3 13.5 1.6 27 1.1 40.5-.5 13.4 2 26.8.9 40.2-.3 3.7 3.3 6.4 6.6 6.6 6.1.3 10.5-3.7 16.1-4.9 2.5-.5 5.1.4 7.5 1.1 3.8 1 7 1.4 10.8.1 5.1-1.7 5.5-9 .1-10.6z" fill="#4d5b96"/><path d="m256.5 15c.8 2.8 0 5.9-.5 8.8-.6 3.3-1.2 6.6-1.7 9.9-1.5 9.9-1.7 20-2.7 29.9-1 10-3.7 19.8-5 29.8-.4 3.3-.8 6.5-1.1 9.8-1.5-4.3-2.8-8.6-3.8-13.1-2.5-11.1-3.4-22.4-4.9-33.6s-3.5-22.3-7.7-32.8c.5 1.1-.5-1.4-.6-1.6-.3-.7-.6-1.5-.9-2.2-.9-2.2-1.7-4.3-3.3-6-2.2-2.4-4.7-4.8-8.3-3.7-1.7.5-2.8 2.7-1.8 4.3-.5-.7.1.5.2 1s.5 1.1.6 1.5c.4 1.7.5 3.5.9 5.3.8 3.3 1.4 6.6 2.4 9.8 3.2 10.4 4.8 21.3 6.1 32.1 1.4 11.1 2.5 22.4 5.4 33.2 2.8 10.7 7.1 21 12.2 30.8 3 5.8 10.8 2.5 11.3-3.1 1-10.6 2.2-21.1 3.9-31.5 1.7-10.3 4.6-20.1 5.5-30.6.9-9.5.8-19.1 2.4-28.5 1.2-6.9 3.4-15.2.7-22-2.1-5.8-11-3.7-9.3 2.5z" fill="#4d5b96"/><path d="m312.7 15c-9.4-4.7-20.8-.9-30.5-3.8-3-.9-6.7 1.1-7.4 4.2-1.7 7.8 1.2 15.6 1.5 23.5.3 9.6 0 19.3-.2 28.9-.4 19.4-1.2 38.8-1.3 58.1 0 8 12.5 8 12.5 0-.1-18.3.5-36.6.8-54.9 1.8 0 3.6-.1 5.1 0 5.8.6 11.7 2 17-1.4 4.9-3.2 4.1-10.7-1.6-12.4-3.3-1-6.7-.9-10.1-1.1-3.2-.2-6.7-.8-9.9 0-.1 0-.2.1-.3.1.1-4.9.1-9.8 0-14.7 0-4.3-.4-8.5-1.1-12.7-.2-1.5-.6-3.1-.9-4.7 3.9.3 7.9.1 11.7.2 5.9.1 13.1.3 15.8-6.1.6-1.2-.2-2.7-1.1-3.2z" fill="#4d5b96"/><path d="m365.1 119c-4.7 2.8-11.2-.7-16.2-1.3-3.6-.4-7.2-.3-10.7.2.2-1.3.4-2.7.6-4 .4-4.6.6-9.2.6-13.8 0-8.7-.5-17.5-1-26.2 4.2.1 8.4-.3 12.3-1.1 3.7-.8 12.8-2 13.2-7 .2-2.6-2.5-4.6-4.8-5.3-2.9-.9-5.8-.3-8.8.1-4.3.6-8.5.3-12.8.2-.3-5.4-.6-10.9-.8-16.3-.2-6.5-1.4-13.1-1.9-19.6 4.9 0 9.8.2 14.6-.3 5.3-.5 10.8-2.3 16.1-2 4.1.2 5.2-5.5 2-7.4-5.3-3.2-11.2-3-17.2-2.8-7.3.2-14.6 0-21.9.1-3.4.1-6.1 2.8-6.2 6.2-.2 8.6 1.7 17.2 2 25.8.3 9.5 1 19 1.6 28.5.6 9.3 1.1 18.5 1.1 27.8 0 4.6-.2 9.2-.7 13.7-.5 4.2-1.4 8.1-.7 12.4.5 3.4 4.7 5.1 7.7 4.3 6.6-1.7 12.4-2.5 19.1-.8 6.8 1.8 12.8 2.7 19.1-.9 6.7-3.9.5-14.6-6.3-10.5z" fill="#4d5b96"/><path d="m430.5 80.3c-.9-3.8-2.2-7.2-4.7-10.2-4-4.8-10.1-6.9-16-8-5.4-1-11.7-1.4-15.8-3.9-.3-.2-1.4-1.1-1.6-1.3-1.1-1.3-1.7-3-1.8-4.7-.5-4.7 1.1-9.6 1.6-14.2.8-7.1-.9-17.6 8.8-18.6 3.8-.4 5.7 2.4 7.7 5.3 2.6 3.8 4.7 8 6 12.4.8 2.9 4.5 2.5 5.5 0 3.1-7.6-.9-17.4-6-23.2-5.9-6.6-15.3-7.1-22.9-3-8.4 4.7-9.6 13.7-10.1 22.5-.5 9.2-4.4 18.9.2 27.7 6.4 12.2 20.4 10.1 31.4 14.4 1.3.5 3.5 2 4.2 3.2 1.8 2.9 2.3 7.3 3.1 11 1.7 7.8 3.2 17.7-2.2 24.5-4.7 5.9-12.7 6.5-18.4 1.8-3.5-2.8-4-5.8-3.5-10.1.3-2.9.8-5.8.6-8.8-.3-3.1-1.5-6.1-1.7-9.1-.5-5.8-8-6.9-10-1.4-1.9 5.3-.6 10.7-1.2 16.1-.5 4.8-1.1 9.2.8 13.8 3.3 7.9 11.2 13.7 19.5 15 8.6 1.4 17.5-2.1 23.1-8.8 6.2-7.5 7.7-17.1 6.7-26.6-.8-5.3-2.1-10.6-3.3-15.8z" fill="#4d5b96"/><path d="m484.3 8.1c-5-3-12.3-3-18-2.8-5.8.2-11.3 1.8-17 2.4-5.4.5-10.3-1.1-15.6-1.1-2.6 0-5.7.6-7.5 2.6-1.5 1.7-2.1 4.7-.3 6.4 1.7 1.6 3.4 1.7 5.6 1.8 2 .2 4 .6 6 1 3.5.6 7 1 10.6.8v.2c-.3 3.6.7 7 .8 10.6.4 10.5-1.1 20.9-1.3 31.4s1.8 20.8 1.8 31.3c0 10.9-1.8 21.5.2 32.4 1.4 7.7 13.4 4.5 11.8-3.3-2-9.9.1-19.8.5-29.8s-1.7-19.9-1.6-30 1.5-20 1.1-30.1c-.1-3.5-.7-7-1.6-10.3-.3-1.1-.5-2.4-.8-3.7 2.4-.4 4.8-.7 7.2-.7 2.5-.1 5.1 0 7.6.3s5 1.1 7.6 1.1c5.6-.3 7.8-7.6 2.9-10.5z" fill="#4d5b96"/><path d="m318.2 136.5c-2.8-1.1-5.2.7-6.6 3-.1-.2-.1-.3-.2-.5-.4-1.3-2.2-1.1-2.3.3-.2 3.7.1 7.4 0 11.1 0 3.8-.5 7.4-.9 11.1-.2 2.7 3.6 2.9 4.4.6 1-2.9 1.4-6.2 1.3-9.6.3.1.6.2.9.2 8.5 0 11.4-13.1 3.4-16.2zm.4 8.4c-.4 2.3-2.1 3.2-4.2 3.7-.2.1-.5.2-.6.3-.1-.9-.3-1.9-.4-2.8.2-.7.4-1.5.7-2.2.3-.8 1.2-3.4 2.3-3.4 1.6-.2 2.3 3.2 2.2 4.4z" fill="#4d5b96"/><path d="m331.5 136.5c-5.2-.1-6.6 5.5-6.9 9.7-.4 4.2-1 10.8 1.7 14.3.4.5 1 .2 1.3-.2 1.9-2.5 1.3-6.8 1.2-9.9 1.1.3 2.3.3 3.4.3s2.2.1 3.2-.2c.3 2.6.4 5.2.4 7.8-.1 2.7 4 2.7 4.1 0 .2-4.3-.2-8.7-1.1-12.9-.9-3.6-2.7-8.8-7.3-8.9zm-.5 9.5c-.7.2-1.5.5-2.1.8.2-2.8.7-6.6 2.9-6.1 1.4.3 2.2 2.4 2.7 4.4-1.3.2-2.5.6-3.5.9z" fill="#4d5b96"/><path d="m355.5 150.2c-.3-.4-.6-.7-.9-.9 2.4-1.7 3.9-4.1 2.7-7.4-1.3-3.8-8.6-7.3-11.8-4.1-.7.1-1.4.7-1.5 1.7-.2 4.4-.1 8.8-.1 13.2 0 3.2-.6 8 1.6 10.5.2.3.7.3 1 0 2.2-2.6 1.6-7.4 1.5-10.5 0-.2 0-.4 0-.6 2.6-.1 4.7-.1 4.9 3.1.2 2.9-.2 5.5 1.4 8.1 1.5 2.4 5.4 0 3.8-2.2-2.4-3.3-.1-7.7-2.6-10.9zm-7.7-2.8c0-2.1-.1-4.2-.2-6.3 2.4-.1 5.6-.1 5.6 2.8 0 2.2-3.4 3.1-5.4 3.5z" fill="#4d5b96"/><path d="m365.7 147.2c.1-2.8.6-7.1-1.9-9.1-.6-.5-1.4-.2-1.5.6-.3 7.5-1.3 14.8-.6 22.4.3 2.8 4.8 2.8 4.4 0-.4-4.7-.7-9.3-.4-13.9z" fill="#4d5b96"/><path d="m378.7 141.7c.9.9 1.5 3.4 3.2 3s1.7-2.8 1.2-4c-.6-1.8-2.4-3.3-4.2-3.8-4.4-1.3-8 2.6-8.8 6.6-1 4.7 1.9 7.4 5.7 9.5 2.2 1.2 4.2 4.6 1.6 6.7-1.8 1.5-3.1-1.1-3.5-2.5-.7-2.5-4.9-2.1-4.6.6.4 3.9 3.7 7.2 7.8 6.7 4.4-.5 6.5-5.5 5.6-9.5-.5-2.1-1.7-3.9-3.5-5.1-1.9-1.2-4.9-1.9-5-4.6 0-2.2 2.3-5.9 4.5-3.6z" fill="#4d5b96"/><path d="m412.4 157.2v-.2.2c-1.9-.1-3.8-.3-5.7-.3h-.1-.4l.3-.3c3.3-3.1 6.3-6.8 6.2-11 0-1.1-.2-2.2-.7-3.4-1-2.6-3.4-4.1-6.1-4.1-.1 0-.2 0-.4 0-1.5.1-4.1 1-5.3 2.5-.4.5-.6 1-.6 1.7v.5c0 .2.3.4.5.5s.4.1.6.1c.7 0 1.4-.3 2.2-.5.8-.3 1.5-.6 2.3-.6h.1c1 0 1.7.3 2.2.8s.7 1.3.7 2.3v.2c-.1 2.8-1.6 5-3.6 7-1.9 2-4.3 3.6-6 5.2-.4.4-.6.8-.6 1.3s.2 1.1.6 1.5.8.7 1.4.7c1.9-.1 3.9-.4 5.8-.5h.6c1.9 0 3.8.3 5.7.4h.1c.6 0 1-.2 1.3-.6.3-.3.4-.8.4-1.3s-.2-1-.5-1.4c0-.4-.4-.6-1-.7z" fill="#4d5b96"/><path d="m429.4 142.2-.1.1c-1.6-2.2-4.3-4-7.1-4-.4 0-.8 0-1.3.1-2.1.5-3.5 1.8-4.4 3.5-.9 1.8-1.3 4-1.3 6.2v.8c-.1.7-.2 1.3-.2 2v1.1c0 2.9.5 6.3 2.7 8.1 1.2 1 2.4 1.4 3.6 1.4 2.2 0 4.3-1.4 6-3.3s2.9-4.4 3.4-6.4c.2-1.1.4-2.2.4-3.4 0-2.2-.5-4.4-1.8-6.2zm-3.2 8.7h-.2.2c-.1.5-.5 1.4-1.1 2.4s-1.3 2-2.1 2.7c-.5.5-1 .8-1.6.8s-1.1-.4-1.5-1.1c-.1-.2-.2-.4-.3-.6v-.1-.1c.1-.1.1-.3.2-.5.1-.3.1-.7.1-1.1 0-1.9-.7-4.3-.7-6.4 0-1.4.3-2.7 1.4-3.7.4-.4.9-.6 1.4-.6 1.3 0 2.6 1.1 3.3 2.1.8 1.1 1.1 2.4 1.1 3.7.1 1 0 1.8-.2 2.5z" fill="#4d5b96"/><path d="m445.6 158.1c-1.9-.2-4-.4-5.9-.4-.2 0-.4 0-.6 0h-.4l.3-.3c1.5-1.6 2.8-3.4 3.8-5.7.8-1.9 1.3-4.1 1.3-6.2 0-1.8-.4-3.6-1.3-5.2-1.2-2-3.5-3.3-5.8-3.3-.6 0-1.1.1-1.7.2-1.8.5-3.4 2.1-3.4 3.8 0 .7.2 1.4.8 2 .1.1.3.2.5.2s.4-.1.5-.2c1-1 2-1.5 3-1.5.9 0 1.7.4 2.2 1.1.6.7.9 1.7.9 3v.1c0 2.9-1.1 5.2-2.6 7.2s-3.5 3.7-5.4 5.4c-.4.4-.6.9-.6 1.4 0 .9.6 1.9 1.5 2.1.7.2 1.4.2 2.1.2 1.6 0 3.1-.3 4.7-.3h.1c1.5 0 3 .4 4.4.4.8 0 1.7-.1 2.5-.5.7-.3.9-.8.9-1.4 0-.5-.2-1-.6-1.5-.2-.3-.7-.6-1.2-.6z" fill="#4d5b96"/><path d="m461.8 142.2c-.9-1.8-2.4-3.1-4.5-3.5v-.2.2c-.4-.1-.7-.1-1.1-.1-1.9 0-3.6 1-4.9 2.5s-2.2 3.5-2.5 5.5c-.5 1.7-.8 3.5-.8 5.3 0 2.7.7 5.3 2.2 7.2 1.3 1.6 2.9 2.2 4.5 2.2 2.4 0 4.8-1.4 6.2-3.6 1.3-2.1 2.3-5.6 2.3-9.1-.1-2.3-.5-4.6-1.4-6.4zm-2.9 8.9c-.2 1.5-.8 4.2-2.2 5.5-.5.4-1.1.7-1.8.7-.2 0-.3 0-.5 0-.5-.1-1-.4-1.3-.8s-.6-.9-.7-1.4c-.3-1.1-.4-2.3-.4-3.4 0-.5 0-1 0-1.3 0-1.5.5-3.2.7-4.9.3-.9.8-1.8 1.7-2.4.5-.3 1-.5 1.5-.5s.9.2 1.3.5c1.4 1.3 1.7 3.7 1.7 5.8.2.7.1 1.5 0 2.2z" fill="#4d5b96"/></svg>