<svg fill="none" height="183" viewBox="0 0 518 183" width="518" xmlns="http://www.w3.org/2000/svg" xmlns:xlink="http://www.w3.org/1999/xlink"><clipPath id="a"><path d="m0 0h517.5v182.51h-517.5z"/></clipPath><g clip-path="url(#a)"><g clip-rule="evenodd" fill-rule="evenodd"><path d="m118.59 103.68c.092 2.112-.595 4.184-1.932 5.822s-3.23 2.726-5.318 3.058c-8.34 1.44-25.73 2.35-40.34 2.35s-32-.89-40.35-2.35c-4.78-.83-7.25-4.65-7.25-8.88v-27.68c.0247-2.0834.7551-4.0969 2.0719-5.7116s3.1422-2.7351 5.1781-3.1784c4.1926-.5664 8.4193-.8437 12.65-.83.832.021 1.6218.3704 2.1971.9718.5752.6015.889 1.4061.8729 2.2382v.16 19.35c8.58 0 16-.51 24.65-.51s16 .51 24.62.51v-19.35c-.0606-.83.2108-1.6502.7546-2.2802s1.3154-1.0184 2.1454-1.0798h.16c4.231-.0087 8.457.2686 12.65.83 2.032.4449 3.854 1.5647 5.169 3.1772 1.315 1.6124 2.045 3.6225 2.071 5.7028zm-47.59-83.3c-38.89 0-70.420013 31.74-70.420013 70.88s31.530013 70.87 70.420013 70.87 70.41-31.73 70.41-70.87-31.53-70.88-70.41-70.88z" fill="#ea2328"/><path d="m195.66 79.24c-17.35 0-26.06-12.69-26.06-26.64s9-26.48 26.23-26.48c6.61 0 11.3 1.46 15.27 4.09l-4.94 8.2c-3.105-2.0632-6.774-3.1114-10.5-3-9.28 0-14.27 7.51-14.27 16.86 0 9.64 4.76 17.55 14.44 17.55 4.132.0693 8.159-1.3105 11.38-3.9l4.55 7.89c-2.58 2.36-8.71 5.41-16.1 5.41" fill="#2b2b2b"/><path d="m232.66 79.24c-12.95 0-18.66-9.88-18.66-19.58s5.63-19.82 18.58-19.82 18.87 9.79 18.87 19.5c0 9.54-5.77 19.9-18.79 19.9zm-.21-31.55c-5.57 0-7.37 4.73-7.37 11.65s2.18 11.89 7.75 11.89 7.54-4.64 7.54-11.57-2.3-12-7.92-12" fill="#2b2b2b"/><path d="m267.85 40.76v24.1c0 3.7 1.27 5.54 4.83 5.54 3.74 0 6.6-3.6 7.36-4.52v-25.12h10.46v26.52c-.027 3.6905.308 7.3749 1 11h-10.3c-.408-1.6395-.662-3.3134-.76-5-1.386 1.8489-3.187 3.3467-5.257 4.3732-2.07 1.0264-4.352 1.5528-6.663 1.5368-8.17 0-11.13-5.31-11.13-12.21v-26.22z" fill="#2b2b2b"/><path d="m316.13 79.24c-11.94 0-19.35-7.91-19.35-19.66 0-12.62 8.32-19.74 19.65-19.74 6 0 9.59 1.81 11.34 3l-3.32 7.16c-2.28-1.4807-4.952-2.2403-7.67-2.18-5.82 0-8.91 4.56-8.91 11.4s2.95 11.78 9.13 11.78c2.793.032 5.536-.7423 7.9-2.23l3.17 7.06c-1.75 1.13-5.16 3.35-11.94 3.35" fill="#2b2b2b"/><path d="m356 78.31v-24.1c0-3.69-1.28-5.54-4.77-5.54-3.8 0-6.67 3.54-7.42 4.54v25.1h-10.43v-55.43h10.47v22.37c1.406-1.6912 3.167-3.0524 5.158-3.9874 1.991-.9349 4.163-1.4205 6.362-1.4226 8.17 0 11.13 5.27 11.13 12.22v26.25z" fill="#2b2b2b"/><path d="m385.48 22.88v20.82c2.381-2.4143 5.61-3.803 9-3.87 9.2 0 15.72 6.39 15.72 19.43s-8.57 20-19.79 20c-8.45 0-13.61-2.13-15.43-3v-53.38zm0 47.27c1.604.5718 3.298.8463 5 .81 5.41 0 8.7-4 8.7-11.7 0-6.95-2.32-11.07-7.59-11.07-1.157.0252-2.296.2876-3.347.771-1.051.4833-1.991 1.1773-2.763 2.039z" fill="#2b2b2b"/><path d="m436.22 78.31c-.349-1.3077-.56-2.6483-.63-4-1.253 1.5347-2.832 2.7714-4.622 3.6206s-3.747 1.2897-5.728 1.2894c-6.32 0-11.22-3.85-11.22-10.61 0-9.76 9.89-13.36 19.75-13.36h1.23v-2c0-3.11-1.25-5-5.91-5-3.433.1001-6.737 1.3303-9.4 3.5l-4.51-6.42c2.23-2 7.17-5.43 15.13-5.43 10.27 0 15.09 4 15.09 14v13.1c-.05 3.7908.309 7.576 1.07 11.29zm-1.22-16.55h-1.27c-5.75 0-9.73 1.73-9.73 6 0 2.67 2.11 3.83 4.41 3.83 1.262-.0211 2.505-.3154 3.642-.8626 1.138-.5473 2.144-1.3344 2.948-2.3074z" fill="#2b2b2b"/><path d="m464.26 79.24c-6.71 0-11-2-13.25-3.55l3.49-7.38c2.691 1.8675 5.857 2.9322 9.13 3.07 3.81 0 6-1.09 6-3.23 0-2.46-4.2-3.12-9.46-5.67s-8.17-5.4-8.17-11c0-7.11 5.56-11.59 14-11.59 4.18-.119 8.312.9192 11.94 3l-3.62 7.11c-2.37-1.4889-5.102-2.3015-7.9-2.35-3.53 0-5 1.25-5 3.17 0 2.47 3.41 3.07 7.65 4.8 5.85 2.39 10 5.16 10 11.47 0 8-5.6 12.11-14.8 12.11" fill="#2b2b2b"/><path d="m503.3 71.38c3.375.0282 6.696-.8563 9.61-2.56l3.34 6.8c-2.47 1.4-6.25 3.62-13.92 3.62-12.45 0-19.54-7.88-19.54-19.89s8.15-19.52 18.46-19.52c11.68 0 17.32 8.23 16.08 22.26h-23.33c.49 5.6 3.34 9.29 9.32 9.29zm4-16.41c-.08-4.16-1.71-7.53-6.19-7.53-4.14 0-6.49 2.67-7.18 7.53z" fill="#2b2b2b"/></g><path d="m508.74 97.82h-330.38v4.35h330.38z" fill="#2b2b2b"/><path d="m177.82 119h6.42l21.14 27.28v-27.28h6.82v39.45h-5.8l-21.76-28.07v28.07h-6.82z" fill="#ea2328"/><path d="m228.38 143.73v-.11c-.007-2.084.396-4.149 1.187-6.077.791-1.929 1.954-3.682 3.422-5.161 1.469-1.479 3.214-2.654 5.137-3.458s3.985-1.222 6.069-1.229 4.149.396 6.077 1.187c1.929.791 3.682 1.954 5.161 3.422 1.479 1.469 2.654 3.214 3.458 5.137s1.222 3.985 1.229 6.069v.11c-.019 4.129-1.675 8.081-4.606 10.989-2.93 2.908-6.895 4.534-11.024 4.521h-.37c-4.074.091-8.019-1.436-10.969-4.248-2.951-2.811-4.666-6.678-4.771-10.752zm24.92 0v-.11c0-5.24-3.78-9.58-9.14-9.58s-9 4.28-9 9.47v.11c0 5.19 3.78 9.53 9.08 9.53 5.56 0 9.06-4.29 9.06-9.42z" fill="#ea2328"/><path d="m276.3 119h29.25v6.2h-22.32v10.26h19.77v6.25h-19.77v10.54h22.61v6.2h-29.54z" fill="#ea2328"/><path d="m358.09 159.63-4.73-4.23c-3.512 2.465-7.709 3.766-12 3.72-12.12 0-20.57-9.19-20.57-20.29v-.11c-.028-2.654.468-5.287 1.458-7.749s2.456-4.704 4.313-6.6c1.857-1.895 4.07-3.406 6.512-4.446 2.441-1.04 5.063-1.589 7.717-1.615h.68c12.12 0 20.58 9.19 20.58 20.29v.12c.002 4.361-1.401 8.608-4 12.11l4.51 3.84zm-9.81-8.63-6.82-5.86 4.46-5.08 6.93 6.32c1.289-2.287 1.952-4.875 1.92-7.5v-.11c0-7.67-5.58-14-13.42-14s-13.3 6.2-13.3 13.86v.12c0 7.66 5.58 14 13.41 14 2.388.027 4.74-.577 6.82-1.75z" fill="#ea2328"/><path d="m378.27 141.7v-22.7h6.94v22.43c0 7.33 3.77 11.22 10 11.22s9.93-3.67 9.93-10.94v-22.71h6.86v22.37c0 11.79-6.65 17.71-17 17.71s-16.73-5.93-16.73-17.38z" fill="#ea2328"/><path d="m442.59 118.7h6.41l17.36 39.74h-7.36l-4-9.52h-18.61l-4.06 9.52h-7.1zm9.92 24.07-6.82-15.77-6.76 15.78z" fill="#ea2328"/><path d="m481.6 119h6.94v33.14h20.74v6.31h-27.68z" fill="#ea2328"/></g></svg>