<svg viewBox="0 0 161.56 152.39" xmlns="http://www.w3.org/2000/svg" xmlns:xlink="http://www.w3.org/1999/xlink"><clipPath id="a"><circle cx="76.19" cy="76.19" r="71.01"/></clipPath><circle cx="76.19" cy="76.19" fill="#ececec" r="76.19"/><g clip-path="url(#a)"><path d="m2.1 5.28h159.45v28.37h-159.45z" fill="#ecac4c"/><path d="m2.1 33.63h159.45v28.37h-159.45z" fill="#eb8c4a"/><path d="m2.1 61.98h159.45v28.37h-159.45z" fill="#ea6d4b"/><path d="m2.1 90.36h159.45v28.37h-159.45z" fill="#e84c4c"/><path d="m2.1 118.73h159.45v28.37h-159.45z" fill="#0c577c"/></g><path d="m35.39 70.35a7 7 0 0 0 -1.17.38l3.08-15.32a2.53 2.53 0 1 0 -5-.87l-10 49a2.43 2.43 0 0 0 .75 2.39 2.82 2.82 0 0 0 2.45.6l.25-.07a2.2 2.2 0 0 0 1.48-1.67l4.77-23.27c.94-3.8 2.46-6 4.51-6.44 2.34-.55 2.56.39 2.7 1a7.37 7.37 0 0 1 -.15 2.7l-4.51 21.63a2.49 2.49 0 0 0 .76 2.47 2.86 2.86 0 0 0 2.75.6 2.11 2.11 0 0 0 1.42-1.66l4.52-22.02a10.5 10.5 0 0 0 .1-4.8c-.91-3.93-4.24-5.69-8.71-4.65zm89.61 13.7a8 8 0 0 0 1.17-.39l-3.05 15.34a2.53 2.53 0 1 0 5 .86l9.93-49a2.42 2.42 0 0 0 -.75-2.39 2.82 2.82 0 0 0 -2.45-.6l-.25.07a2.2 2.2 0 0 0 -1.48 1.67l-4.7 23.25c-.94 3.8-2.45 6-4.5 6.45-2.34.55-2.56-.4-2.71-1a7.67 7.67 0 0 1 .16-2.7l4.48-21.61a2.49 2.49 0 0 0 -.76-2.47 2.84 2.84 0 0 0 -2.75-.61 2.14 2.14 0 0 0 -1.42 1.66l-4.52 22a10.5 10.5 0 0 0 -.09 4.85c.9 3.9 4.24 5.66 8.69 4.62zm-71.69-21.05a3.07 3.07 0 0 0 2.64.51 4.06 4.06 0 0 0 2.95-3.17 3.1 3.1 0 0 0 -1.14-3.21 3.19 3.19 0 0 0 -3.67-.21 3.8 3.8 0 0 0 -2 3.72 3.1 3.1 0 0 0 1.22 2.36zm1 3.54a2.52 2.52 0 0 0 -2.89 2.12l-6 29.44a2.3 2.3 0 0 0 .57 2.37 2.93 2.93 0 0 0 2.64.63l.26-.08a2.07 2.07 0 0 0 1.48-1.57l6-29.94a2.53 2.53 0 0 0 -2.1-2.97zm36-8.44a2.56 2.56 0 0 0 -3 2l-4.61 22.52v.19c0 .07-1 7.19-5 7.19a2.73 2.73 0 0 1 -2-.62 2.84 2.84 0 0 1 -.41-1.79q.09-.48.15-.93l4.6-22.45a2.56 2.56 0 1 0 -5-1.07l-4.6 22.45a9.38 9.38 0 0 0 -.19 1.23c-.42 1.92-1.72 6.29-4.87 6.29a2.75 2.75 0 0 1 -2-.62 3.78 3.78 0 0 1 -.3-2.68l4.62-22.54a2.54 2.54 0 1 0 -5-1l-4.7 22.43c-.1.42-.92 4.15 1.26 6.92a7.22 7.22 0 0 0 6 2.56 8.8 8.8 0 0 0 7.57-4.49 7.9 7.9 0 0 0 4.78 1.38c6.74 0 9.49-7.19 10.07-11.52l4.6-22.45a2.55 2.55 0 0 0 -1.97-3zm22.26-5.1a2.32 2.32 0 0 0 -.79 0 2.46 2.46 0 0 0 -2 1.76 6.24 6.24 0 0 0 -3.29-.73 8.82 8.82 0 0 0 -2 .24 9.66 9.66 0 0 0 -1.32.42c-3.61 1.42-6 4.94-7.13 10.75l-.76 3.56-.85 4-.71 3.37-.72 3.78a10.33 10.33 0 0 0 -.06 4.85c.86 3.56 3.73 5.18 6.42 4.42 1.47-.42 4.46-3.33 4.43-4a2.52 2.52 0 0 0 1.95 2.71 2.55 2.55 0 0 0 3.05-2l2.09-11.54 3.78-18.7a2.53 2.53 0 0 0 -2.09-2.89zm-11.65 13.72c.92-4.63 2.49-7.24 4.67-7.75 2.35-.55 2.57.39 2.71 1a.31.31 0 0 1 0 .09 17.82 17.82 0 0 1 -.21 1.8l-.57 3.14-.82 4.08-.57 2.86c-.54 2.52-1.43 7-2 8a4.91 4.91 0 0 1 -.91 1.16 10.38 10.38 0 0 1 -2.26 1.55c-2.43 1.32-2.82-1.25-2.15-5.79l1.42-6.86z" fill="#033d56" opacity=".3"/><path d="m31.39 69.35a7 7 0 0 0 -1.17.38l3.08-15.32a2.53 2.53 0 1 0 -5-.87l-10 49a2.43 2.43 0 0 0 .75 2.39 2.82 2.82 0 0 0 2.45.6l.25-.07a2.2 2.2 0 0 0 1.48-1.67l4.77-23.27c.94-3.8 2.46-6 4.51-6.44 2.34-.55 2.56.39 2.7 1a7.37 7.37 0 0 1 -.15 2.7l-4.52 21.65a2.49 2.49 0 0 0 .76 2.47 2.86 2.86 0 0 0 2.75.6 2.11 2.11 0 0 0 1.42-1.66l4.53-22.04a10.5 10.5 0 0 0 .1-4.8c-.91-3.93-4.24-5.69-8.71-4.65zm89.61 13.7a8 8 0 0 0 1.17-.39l-3.05 15.34a2.53 2.53 0 1 0 5 .86l9.93-49a2.42 2.42 0 0 0 -.75-2.39 2.82 2.82 0 0 0 -2.45-.6l-.25.07a2.2 2.2 0 0 0 -1.48 1.67l-4.7 23.25c-.94 3.8-2.45 6-4.5 6.45-2.34.55-2.56-.4-2.71-1a7.67 7.67 0 0 1 .16-2.7l4.48-21.61a2.49 2.49 0 0 0 -.76-2.47 2.84 2.84 0 0 0 -2.75-.61 2.14 2.14 0 0 0 -1.42 1.66l-4.52 22a10.5 10.5 0 0 0 -.09 4.85c.9 3.9 4.24 5.66 8.69 4.62zm-71.69-21.05a3.07 3.07 0 0 0 2.64.51 4.06 4.06 0 0 0 2.95-3.17 3.1 3.1 0 0 0 -1.14-3.21 3.19 3.19 0 0 0 -3.67-.21 3.8 3.8 0 0 0 -2 3.72 3.1 3.1 0 0 0 1.22 2.36zm1 3.54a2.52 2.52 0 0 0 -2.89 2.12l-6 29.44a2.3 2.3 0 0 0 .58 2.37 2.93 2.93 0 0 0 2.64.63l.26-.08a2.07 2.07 0 0 0 1.48-1.57l6-29.94a2.53 2.53 0 0 0 -2.11-2.97zm36-8.44a2.56 2.56 0 0 0 -3 2l-4.61 22.52v.19c0 .07-1 7.19-5 7.19a2.73 2.73 0 0 1 -2-.62 2.84 2.84 0 0 1 -.41-1.79q.09-.48.15-.93l4.6-22.45a2.56 2.56 0 1 0 -5-1.07l-4.6 22.45a9.38 9.38 0 0 0 -.19 1.23c-.42 1.92-1.72 6.29-4.87 6.29a2.75 2.75 0 0 1 -2-.62 3.78 3.78 0 0 1 -.3-2.68l4.62-22.54a2.54 2.54 0 1 0 -5-1l-4.7 22.43c-.1.42-.92 4.15 1.26 6.92a7.22 7.22 0 0 0 6 2.56 8.8 8.8 0 0 0 7.57-4.49 7.9 7.9 0 0 0 4.78 1.38c6.74 0 9.49-7.19 10.07-11.52l4.6-22.45a2.55 2.55 0 0 0 -1.97-3zm22.26-5.1a2.32 2.32 0 0 0 -.79 0 2.46 2.46 0 0 0 -2 1.76 6.24 6.24 0 0 0 -3.29-.73 8.82 8.82 0 0 0 -2 .24 9.66 9.66 0 0 0 -1.32.42c-3.61 1.42-6 4.94-7.13 10.75l-.76 3.56-.85 4-.71 3.37-.72 3.78a10.33 10.33 0 0 0 -.06 4.85c.86 3.56 3.73 5.18 6.42 4.42 1.47-.42 4.46-3.33 4.43-4a2.52 2.52 0 0 0 1.95 2.71 2.55 2.55 0 0 0 3.05-2l2.09-11.54 3.78-18.7a2.53 2.53 0 0 0 -2.09-2.89zm-11.65 13.72c.92-4.63 2.49-7.24 4.67-7.75 2.35-.55 2.57.39 2.71 1a.31.31 0 0 1 0 .09 17.82 17.82 0 0 1 -.21 1.8l-.57 3.14-.82 4.08-.57 2.86c-.54 2.52-1.43 7-2 8a4.91 4.91 0 0 1 -.91 1.16 10.38 10.38 0 0 1 -2.26 1.55c-2.43 1.32-2.82-1.25-2.15-5.79l1.42-6.86z" fill="#fff"/></svg>