<svg height="66" viewBox="0 0 134 66" width="134" xmlns="http://www.w3.org/2000/svg" xmlns:xlink="http://www.w3.org/1999/xlink"><linearGradient id="a" x1="171.020601%" x2="16.315516%" y1="122.999837%" y2="17.271611%"><stop offset="0" stop-color="#ffcda5"/><stop offset="1" stop-color="#f00b51"/></linearGradient><g fill="none" fill-rule="evenodd"><path d="m2 5h130v56h-130z" fill="url(#a)" transform="matrix(.99756405 -.06975647 .06975647 .99756405 -2.138755 4.75407)"/><path d="m122 16.7573796v34.2426204h-8.74833v-3.8278153h.959445c1.110689 0 2.223509-.0195254 3.33292.0091396.440101.0112167.536386-.140417.535534-.5417269-.012781-5.7471236-.008947-11.4942472-.008947-17.2417862 0-2.7476851-.013207-5.4957856.013633-8.2434707.004687-.496029-.153374-.6036266-.62841-.5936562-1.383356.028665-2.765434.009555-4.19821.009555v-3.8128597zm-101.2350547-.0182791v3.8057973c-.155505.0087241-.3242173.0249261-.4937817.0253415-1.2402059.0020772-2.4799858.0228489-3.7189135-.0103859-.4835568-.0128784-.6262806.1109211-.6241504.5973951.0178938 5.3387513.009799 10.6775026.009799 16.0166693 0 3.1402709.0093729 6.2805418-.0089469 9.4212281-.0025562.442438.1060843.6003031.5866587.5878401 1.2376497-.0319885 2.4778556-.0103859 3.7189136-.0103859h.5436285v3.8062127h-8.7781526v-34.2397123zm13.4820734 5.5971517c1.2892006.1138291 2.5647679.3672443 3.9067977.5666529-.3395549 1.3227441-.6467306 2.5183652-.961149 3.7414049-.7638918-.1566189-1.490292-.3340095-2.2269172-.4503312-1.509464-.2376287-3.0227623-.2509226-4.4840835.2426139-.5206224.1757288-1.0378364.4495003-1.4617473.7914031-1.0386885.8404243-.9219532 2.3177101.2441216 2.9757587.6330972.3568584 1.3433078.5986414 2.038181.8350237 1.6538919.5620832 3.3572045.998705 4.9701965 1.6534301 2.6448637 1.0738987 4.1564578 3.0127325 4.1471282 5.8912795-.0098423 2.9030576-1.5244187 4.8722181-4.144998 6.1019048-2.1642892 1.0144915-4.4678939 1.1004865-6.8034517.9338972-1.5997847-.11466-3.1480183-.4495003-4.613174-1.1121187-.3340163-.1508028-.4784442-.2891425-.3744902-.6987611.2786309-1.0946705.4835568-2.2067892.7319388-3.3803922.2338966.1125828.4277453.2064711.6228722.3003593 2.3615463 1.1287361 4.841106 1.5196601 7.4114125.9455294.7579272-.1694974 1.5196889-.5487893 2.1451173-1.0070137 1.3352131-.976687 1.2346674-2.9088738-.2027956-3.7393277-.931326-.537988-1.9704405-.9135409-2.9903831-1.2895093-1.1268789-.4158502-2.2933797-.7278416-3.4283534-1.1225046-2.0190092-.7008383-3.6196459-1.8594857-4.2625421-3.963247-.9551843-3.126977.5832504-6.0782251 3.8663238-7.414263 1.8801198-.7652308 3.8607852-.9783488 5.8699955-.801789zm56.7465558.7390583v21.8032592h-3.8509863v-17.8844637h-6.3991386v-3.9187955zm17.2798045-.388016c1.126027.2043939 2.210728.531341 3.260919 1.0896852-.515084 1.1997754-1.023351 2.3808563-1.545677 3.5955873-.451604-.1694973-.881053-.3290243-1.309651-.4914592-2.815706-1.072237-5.174696-.3772147-7.12 1.7934316-.549593.6127661-1.029316 1.2866012-1.505204 1.956282-.1256818.1744825-.1601911.438699-.1601911.6617874-.0093729 4.3338148-.0076687 8.6672141-.0076687 13.000198v.579116h-3.8569509v-21.8011821h3.8539686v3.3288783c.2922641-.3805382.4959121-.6509862.7059501-.9172798 1.961494-2.4975934 4.55225-3.3625285 7.684505-2.7950447zm-50.9979821-6.8401323c-.361709 1.0984094-.7008378 2.1241176-1.0335759 3.1357011-.9939541-.1769752-1.9482864-.4033871-2.9162519-.5018451-.7264003-.0743628-1.4813453-.0481904-2.2051892.0490213-.7468502.1005352-1.2892007.5973951-1.4106224 1.316928-.1729727 1.02737-.2138727 2.0759272-.3178267 3.17766h5.7498518v3.93749h-5.6910581v17.9064818h-4.0520778v-17.8782322h-2.7756583v-3.9383209h2.7603209c.0242843-.4237434.0230062-.7963883.0737051-1.1623863.1427238-1.0547887.2185591-2.1295183.4835567-3.1560574.4827047-1.8615629 1.7335616-3.034335 3.6788657-3.4638945 2.5950168-.5741308 5.1082338-.1611887 7.6559601.5774542zm19.3814657 25.227272v3.7733934h-17.3867409v-3.7733934zm.0029822-9.004547v3.8141059h-17.3803502v-3.8141059zm-.0042604-8.976713v3.7742242h-17.3846106v-3.7742242zm12.485563-8.0868575c1.4089182.0033292 2.5298326 1.1034003 2.5319688 2.4872132.0029763 1.4232793-1.1094172 2.5225195-2.545176 2.5171387-1.3641839-.0054205-2.4829681-1.1503585-2.4791435-2.537495.0038442-1.3651184 1.119646-2.4697592 2.4923507-2.4668569z" fill="#fff"/></g></svg>